<?xml version="1.0" standalone="no"?>
<!DOCTYPE svg PUBLIC "-//W3C//DTD SVG 20010904//EN"
 "http://www.w3.org/TR/2001/REC-SVG-20010904/DTD/svg10.dtd">
<svg version="1.0" xmlns="http://www.w3.org/2000/svg"
 width="2560.000000pt" height="1440.000000pt" viewBox="0 0 2560.000000 1440.000000"
 preserveAspectRatio="xMidYMid meet">

<g transform="translate(0.000000,1440.000000) scale(0.100000,-0.100000)"
fill="#000000" stroke="none">
<path d="M11250 14390 c0 -17 120 -100 212 -146 91 -46 106 -52 253 -103 179
-63 254 -97 283 -126 41 -44 24 -61 -78 -75 -64 -9 -86 -8 -160 10 -80 20
-160 43 -205 61 -11 4 -38 12 -60 17 -38 10 -84 25 -130 43 -11 4 -50 15 -88
24 -79 19 -168 51 -292 107 -49 22 -101 45 -115 50 -14 6 -38 16 -55 23 -61
27 -99 35 -136 29 -28 -5 -39 -12 -39 -24 0 -9 2 -19 5 -21 2 -3 7 -93 9 -200
3 -106 7 -209 10 -227 9 -61 88 -240 127 -290 21 -27 47 -136 59 -247 9 -85
25 -126 65 -169 14 -15 25 -33 25 -40 0 -12 55 -63 140 -129 52 -41 271 -177
284 -177 5 0 17 -6 25 -13 63 -53 180 -61 635 -42 441 18 782 18 1241 0 494
-19 719 -36 1110 -85 497 -62 847 -121 1215 -205 85 -20 175 -40 200 -45 54
-11 287 -70 385 -98 39 -11 135 -39 215 -62 332 -95 388 -106 607 -120 85 -5
149 -14 151 -20 2 -5 32 -10 68 -10 61 0 64 -1 64 -24 0 -13 -7 -26 -15 -30
-27 -10 -16 -22 40 -45 30 -13 55 -27 55 -32 0 -5 7 -9 15 -9 8 0 36 -10 62
-22 141 -64 281 -133 315 -154 21 -13 42 -24 47 -24 6 0 43 -15 83 -34 95 -44
158 -60 237 -58 35 1 101 -2 147 -8 46 -5 96 -5 112 -1 56 16 447 24 535 11
110 -17 157 -29 157 -40 0 -6 11 -10 24 -10 13 0 26 -6 29 -14 3 -8 21 -17 39
-21 39 -8 110 -45 121 -62 4 -7 23 -15 41 -19 19 -3 43 -14 55 -25 11 -10 29
-19 41 -19 11 0 20 -6 20 -13 0 -6 14 -18 30 -25 17 -8 30 -20 30 -28 0 -10
13 -14 46 -14 36 0 47 -4 51 -18 3 -12 21 -23 54 -31 27 -7 51 -17 55 -22 3
-5 16 -9 30 -9 16 0 24 -6 24 -17 1 -23 64 -63 99 -63 15 0 37 -9 49 -20 13
-12 35 -20 57 -20 19 0 35 -4 35 -8 0 -4 17 -14 38 -21 20 -8 58 -35 84 -62
41 -42 107 -76 121 -63 6 6 119 -21 145 -35 11 -6 34 -11 51 -11 16 0 34 -6
38 -13 4 -8 17 -19 28 -25 11 -6 14 -12 8 -12 -8 0 -4 -10 9 -25 26 -30 38
-32 38 -4 0 26 22 20 26 -7 2 -10 13 -27 26 -38 20 -16 23 -17 26 -2 5 24 21
19 28 -9 4 -15 13 -25 24 -25 14 0 18 -12 24 -62 3 -35 11 -64 16 -66 13 -5
13 -32 0 -32 -5 0 -10 -18 -10 -40 0 -22 5 -40 11 -40 14 0 69 -55 69 -69 0
-6 7 -11 16 -11 8 0 22 -6 29 -12 33 -30 45 -38 54 -38 5 0 16 -6 23 -12 19
-19 87 -54 129 -67 23 -7 39 -20 42 -32 3 -11 11 -19 19 -18 18 4 138 -42 138
-52 0 -14 28 -11 33 4 3 8 14 3 31 -15 15 -16 33 -28 41 -28 27 0 86 -34 81
-46 -3 -8 1 -11 9 -8 15 6 75 -46 75 -65 0 -10 52 -16 88 -12 8 1 31 -16 51
-38 22 -23 47 -41 59 -41 23 0 115 -40 120 -52 2 -5 21 -8 43 -8 21 0 39 -4
39 -10 0 -5 -5 -10 -12 -10 -7 0 7 -18 30 -40 22 -22 49 -40 59 -40 9 0 26
-12 38 -26 11 -14 33 -27 49 -28 15 -2 32 -9 36 -16 4 -7 17 -11 28 -8 15 4
18 1 15 -13 -5 -16 1 -19 36 -19 30 0 41 -4 41 -15 0 -11 11 -15 40 -15 29 0
40 4 40 15 0 19 2 19 45 -2 22 -10 35 -24 35 -36 0 -19 51 -77 68 -77 6 0 12
5 14 11 2 7 16 3 38 -10 19 -11 54 -31 78 -43 32 -17 42 -28 42 -47 1 -22 11
-31 60 -54 33 -15 60 -31 60 -36 0 -11 76 -61 91 -61 7 0 28 -17 48 -38 20
-21 58 -49 85 -62 60 -30 86 -50 86 -67 0 -7 11 -15 25 -19 14 -3 25 -10 25
-14 0 -4 11 -11 25 -14 14 -4 25 -11 25 -16 0 -6 7 -10 15 -10 8 0 15 -4 15
-8 0 -5 16 -16 37 -26 27 -13 38 -14 44 -5 5 9 14 4 32 -14 13 -15 29 -27 36
-27 6 0 11 -6 11 -12 0 -14 96 -68 121 -68 22 0 39 -21 39 -47 0 -14 7 -26 18
-29 37 -12 62 -28 62 -40 0 -7 9 -16 20 -19 11 -3 20 -11 20 -16 0 -5 7 -9 16
-9 8 0 37 -22 63 -49 57 -58 110 -89 121 -70 6 9 15 5 33 -14 28 -31 47 -35
47 -9 0 13 7 9 31 -15 16 -18 37 -33 45 -33 17 0 76 -29 84 -41 3 -4 21 -9 40
-11 32 -3 35 -6 40 -38 5 -32 8 -35 43 -38 27 -2 37 -8 37 -20 1 -19 83 -62
119 -62 12 0 38 -8 59 -19 20 -10 61 -24 90 -31 28 -6 52 -16 52 -21 0 -5 13
-9 30 -9 33 0 201 -76 213 -96 4 -7 24 -16 45 -20 20 -3 49 -14 64 -25 15 -10
32 -19 38 -19 5 0 10 -6 10 -12 1 -20 87 -68 122 -68 21 0 31 -6 35 -19 4 -17
60 -38 85 -33 4 1 45 -12 92 -28 92 -33 100 -33 229 2 l77 21 0 3188 0 3189
-7175 0 c-4787 0 -7175 -3 -7175 -10z m10132 -1639 c56 -23 98 -79 100 -134 2
-45 -6 -55 -47 -63 -45 -8 -99 24 -125 77 -25 49 -25 84 0 109 22 22 38 24 72
11z"/>
<path d="M15326 12259 c-17 -11 -17 -12 5 -23 20 -10 26 -9 36 3 21 29 -4 41
-41 20z"/>
<path d="M0 12127 l0 -135 38 -6 c20 -3 62 -8 92 -11 64 -7 106 -19 325 -88
181 -57 249 -84 455 -185 170 -83 437 -257 530 -346 36 -34 88 -79 115 -101
86 -67 116 -98 163 -170 25 -38 62 -92 83 -120 54 -73 174 -320 188 -390 7
-33 24 -106 37 -161 16 -70 24 -131 24 -196 0 -52 5 -142 11 -200 9 -97 8
-118 -16 -259 -20 -117 -41 -195 -86 -321 -32 -92 -59 -171 -59 -175 2 -22 39
69 91 220 85 243 112 417 110 697 -1 113 -4 217 -7 232 -3 14 0 29 5 33 22 13
33 -55 38 -240 6 -182 5 -197 -26 -365 -17 -96 -45 -211 -61 -255 -16 -44 -49
-137 -74 -206 -25 -70 -77 -185 -114 -255 -38 -71 -87 -165 -109 -209 -22 -44
-93 -154 -158 -245 -65 -91 -135 -190 -156 -220 -20 -30 -81 -105 -135 -165
-55 -61 -123 -139 -153 -173 -59 -67 -91 -86 -43 -24 16 20 33 44 38 53 5 9
36 47 69 84 119 135 132 151 175 215 24 36 87 128 141 205 53 77 146 228 206
335 97 173 118 218 181 400 53 154 75 237 91 335 30 188 31 183 -41 278 -65
86 -335 363 -402 413 -22 16 -58 45 -81 64 -24 19 -80 60 -125 90 -45 30 -88
61 -95 68 -8 6 -16 12 -20 12 -4 0 -25 13 -48 29 -61 41 -265 151 -469 253
-97 48 -179 92 -183 98 -3 5 -16 10 -28 10 -16 0 -18 3 -9 9 12 7 11 14 -3 41
-9 18 -25 35 -36 37 -15 4 -19 14 -19 44 0 22 -4 39 -9 39 -5 0 -12 11 -15 25
-4 14 -11 25 -16 25 -6 0 -10 11 -10 25 0 23 -23 71 -41 85 -3 3 -9 15 -13 28
-4 12 -10 22 -14 22 -4 0 -18 25 -32 55 -16 35 -31 55 -42 55 -12 0 -18 8 -18
24 0 16 -13 35 -40 56 -22 17 -40 35 -40 40 0 5 -18 36 -40 69 -36 54 -80 91
-110 91 -7 0 -10 -1787 -10 -5900 l0 -5900 4880 0 c2684 0 4880 2 4880 5 0 16
-94 88 -220 167 -159 100 -356 221 -380 231 -8 4 -28 16 -45 26 -16 11 -61 36
-100 57 -38 20 -74 40 -80 44 -9 7 -37 22 -194 107 -35 19 -84 50 -110 68 -25
18 -73 47 -106 65 -116 64 -130 72 -145 84 -8 6 -33 20 -55 31 -78 39 -116 71
-135 113 -11 23 -16 42 -11 42 4 0 14 15 23 33 11 24 13 45 7 87 -4 30 -8 88
-8 128 -1 41 -5 72 -11 72 -5 0 -10 18 -10 40 0 22 -4 40 -9 40 -9 0 -17 33
-27 118 -4 27 -2 42 5 42 6 0 11 18 11 40 0 29 -4 40 -15 40 -16 0 -20 44 -9
88 7 25 24 30 24 7 0 -11 11 -15 39 -15 24 0 41 -5 44 -14 3 -8 20 -17 37 -21
17 -4 43 -13 58 -21 15 -8 35 -14 45 -14 9 0 17 -4 17 -9 0 -5 11 -12 25 -15
14 -4 34 -15 45 -26 11 -11 48 -33 83 -49 34 -16 73 -38 86 -50 13 -12 32 -21
42 -21 10 0 25 -7 34 -16 16 -16 81 -55 125 -75 14 -6 75 -35 135 -64 61 -29
128 -61 150 -70 22 -10 78 -36 125 -58 91 -43 239 -111 280 -129 14 -5 33 -14
42 -19 10 -5 64 -27 120 -50 57 -22 117 -47 133 -54 64 -29 213 -85 243 -91
18 -4 32 -10 32 -15 0 -5 5 -9 10 -9 30 0 492 -215 523 -243 17 -16 44 -33 87
-54 19 -9 40 -21 45 -25 6 -5 21 -17 34 -28 13 -11 29 -20 35 -20 6 0 19 -8
28 -17 16 -18 26 -26 103 -83 65 -49 151 -122 242 -208 19 -17 38 -32 42 -32
11 0 118 -113 130 -137 11 -22 16 -23 156 -23 87 0 145 4 145 10 0 13 -48 68
-145 166 -44 44 -105 108 -135 142 -30 34 -112 121 -182 193 -71 72 -130 140
-133 152 -11 53 -10 63 10 81 32 29 60 36 153 37 85 1 177 -15 188 -32 3 -5
25 -9 50 -9 25 0 54 -5 65 -11 11 -5 59 -17 107 -24 48 -8 103 -19 122 -25 19
-6 55 -13 80 -16 25 -3 61 -10 80 -15 19 -6 85 -17 145 -24 61 -8 160 -23 220
-34 113 -21 224 -34 449 -51 71 -5 143 -14 160 -19 17 -5 38 -9 46 -9 59 2
316 -16 320 -22 8 -13 231 -20 670 -21 454 -2 565 3 591 27 9 8 19 11 20 6 2
-6 39 -13 82 -17 74 -7 77 -7 77 14 0 18 6 21 40 21 22 0 40 5 40 10 0 6 -18
10 -39 10 -22 0 -41 5 -43 11 -2 5 -28 10 -58 11 -30 0 -59 4 -65 9 -5 4 -21
8 -35 8 -14 1 -55 4 -92 7 -64 5 -68 7 -68 30 0 23 -2 24 -74 24 -41 0 -78 5
-81 10 -3 6 -42 10 -86 10 -64 0 -79 3 -79 15 0 13 -20 15 -120 15 -100 0
-120 3 -120 15 0 12 -17 15 -91 15 -87 0 -92 1 -120 29 -16 16 -29 39 -29 50
0 20 -6 21 -80 21 -64 0 -80 3 -80 15 0 11 -11 15 -40 15 -36 0 -40 3 -40 25
0 23 -4 25 -40 25 -29 0 -40 4 -40 15 0 12 -16 15 -80 15 -79 0 -80 0 -80 25
0 23 -4 25 -40 25 -29 0 -40 4 -40 15 0 23 -77 21 -82 -2 -3 -15 -10 -11 -41
19 -29 29 -37 45 -37 73 0 34 -1 35 -40 35 l-40 0 0 40 0 40 -40 0 -40 0 0 90
0 90 -40 0 c-38 0 -40 2 -40 30 0 28 -2 30 -40 30 -22 0 -40 5 -40 10 0 6 -20
10 -45 10 -51 0 -95 32 -95 70 0 11 -4 20 -10 20 -5 0 -10 -7 -10 -15 0 -8 -7
-15 -15 -15 -9 0 -12 6 -8 16 10 26 -13 31 -118 26 -70 -3 -99 -1 -99 7 0 6
-19 11 -47 11 -27 0 -53 6 -63 15 -11 10 -49 17 -111 22 -52 3 -96 9 -99 13
-3 4 -39 12 -80 19 -41 6 -77 16 -80 20 -3 4 -25 11 -50 15 -116 16 -312 57
-384 80 -27 9 -64 16 -82 16 -18 0 -45 5 -61 11 -15 6 -75 17 -133 25 -110 13
-381 60 -415 70 -10 4 -44 10 -75 15 -248 35 -433 77 -570 130 -41 16 -79 29
-84 29 -9 0 -46 39 -46 48 0 2 18 2 39 -1 22 -2 44 0 49 5 10 10 160 -3 252
-22 25 -5 92 -17 150 -26 58 -9 139 -23 180 -31 41 -8 122 -19 180 -24 58 -5
166 -17 240 -25 206 -24 371 -41 520 -53 74 -7 167 -16 205 -21 39 -5 140 -12
225 -15 85 -3 189 -11 230 -18 101 -16 937 -15 1220 1 188 11 484 34 605 47
65 6 327 36 360 40 17 2 55 6 85 10 62 7 144 21 465 80 90 17 320 68 380 85
22 6 60 15 85 20 40 8 95 21 210 49 19 5 60 16 90 24 30 9 98 28 150 42 52 14
153 46 225 71 133 47 173 60 235 73 31 7 95 28 155 51 11 4 70 26 130 48 61
22 164 62 230 90 66 28 165 69 220 92 55 22 118 49 140 58 68 29 252 121 307
154 120 71 239 137 340 188 151 78 155 80 248 139 46 30 93 59 104 65 37 20
201 127 371 240 33 22 83 58 111 80 28 23 64 50 80 61 15 11 73 58 129 104 55
46 120 100 145 120 69 55 240 223 259 253 9 14 31 44 49 65 17 21 54 67 82
103 27 36 56 72 63 80 8 8 30 40 49 70 19 31 41 62 49 70 42 43 138 210 250
430 4 8 14 44 22 80 8 36 18 73 22 84 7 16 6 17 -13 7 -12 -7 -22 -8 -22 -4 0
4 -18 -11 -40 -32 -22 -21 -40 -35 -40 -31 0 5 -8 -1 -17 -12 -50 -59 -178
-195 -254 -271 -210 -210 -283 -271 -323 -271 -9 0 -16 -4 -16 -9 0 -5 -14
-14 -31 -20 -26 -9 -30 -8 -25 4 3 8 1 17 -5 20 -9 6 13 35 26 35 4 0 22 12
41 28 18 15 47 38 64 52 17 14 98 93 179 175 221 224 271 277 271 286 0 5 7 9
16 9 8 0 13 4 10 9 -3 4 6 19 19 31 14 13 25 27 25 32 0 5 11 25 24 46 13 20
27 52 31 70 4 17 11 32 16 32 6 0 9 8 8 18 -5 56 1 70 36 82 24 8 50 30 80 70
54 70 67 129 41 182 -16 32 -16 34 3 49 17 14 19 25 15 76 -3 51 -1 63 16 78
11 10 20 23 20 30 0 6 -37 -25 -82 -70 -216 -212 -610 -527 -768 -616 -19 -11
-56 -33 -82 -48 -45 -29 -75 -46 -213 -124 -38 -22 -146 -79 -240 -126 -93
-48 -179 -92 -190 -98 -41 -22 -162 -83 -225 -114 -36 -17 -66 -35 -68 -40 -2
-5 -8 -9 -14 -9 -10 0 -263 -98 -326 -127 -69 -30 -360 -146 -427 -170 -38
-13 -86 -30 -105 -37 -19 -8 -109 -37 -200 -66 -91 -29 -204 -65 -252 -81 -48
-16 -95 -29 -103 -29 -8 0 -23 -4 -33 -9 -49 -24 -323 -100 -457 -127 -106
-21 -185 -38 -355 -79 -85 -20 -173 -41 -195 -45 -22 -4 -69 -14 -105 -23
-144 -34 -292 -59 -465 -76 -49 -6 -155 -19 -235 -31 -166 -25 -350 -43 -665
-65 -121 -8 -274 -20 -340 -26 -81 -8 -302 -9 -685 -5 -537 6 -680 14 -680 37
0 5 -9 9 -20 9 -11 0 -20 5 -20 10 0 6 18 10 39 10 29 0 40 -4 43 -17 3 -15 4
-15 19 -1 13 13 63 17 325 23 170 3 422 13 559 21 138 8 318 19 400 24 152 9
276 23 294 34 18 11 237 35 377 41 165 7 238 17 399 56 123 29 247 49 440 70
61 7 121 14 135 15 32 4 75 12 125 26 22 5 58 12 80 15 22 3 42 9 45 12 10 14
187 55 309 72 41 6 117 22 170 35 53 14 125 31 161 39 36 8 83 22 105 31 22 9
50 18 63 20 30 6 227 80 267 101 17 8 68 29 115 45 179 62 438 186 541 259
101 72 122 84 469 259 41 21 126 68 189 104 62 36 115 66 118 66 15 0 296 165
373 220 52 37 151 107 220 155 150 106 271 199 331 255 24 23 79 69 123 103
130 102 282 234 333 289 26 28 53 56 59 62 6 6 48 54 94 106 46 52 86 97 89
100 27 23 129 153 181 230 34 52 88 131 120 175 31 44 74 109 96 144 l39 64 4
181 c3 169 0 215 -34 491 -2 17 -6 39 -10 50 -3 11 0 9 7 -5 7 -14 16 -28 21
-31 5 -4 6 -16 2 -28 -4 -12 -2 -21 4 -21 6 0 11 11 11 24 0 13 5 26 11 28 7
2 -4 34 -30 83 -24 46 -41 71 -42 60 -1 -16 -3 -14 -8 5 -3 14 -32 104 -64
200 -71 213 -152 396 -226 511 -31 48 -81 126 -111 174 -46 73 -231 329 -249
345 -4 3 -39 46 -80 95 -162 196 -610 619 -791 745 -19 13 -58 43 -85 65 -154
124 -537 355 -885 532 -465 236 -826 382 -1360 547 -284 88 -631 184 -800 220
-36 8 -112 25 -170 40 -473 115 -839 167 -1510 215 -296 21 -382 26 -790 42
-181 7 -305 7 -390 0 -69 -6 -226 -15 -350 -21 -569 -27 -1121 -91 -1675 -195
-77 -15 -160 -30 -185 -34 -125 -23 -424 -94 -660 -158 -52 -14 -126 -34 -165
-44 -117 -32 -551 -176 -631 -210 -23 -10 -55 -34 -70 -53 -29 -36 -30 -36
-85 -30 -53 6 -66 3 -195 -51 -355 -146 -734 -331 -989 -483 -381 -227 -541
-336 -801 -544 -184 -147 -187 -150 -394 -358 -291 -290 -434 -471 -535 -678
-56 -116 -73 -162 -60 -162 11 0 111 103 165 170 24 30 54 64 65 75 11 11 45
49 74 85 168 203 321 362 501 522 183 163 183 163 202 191 10 14 31 28 48 32
16 4 30 10 30 14 0 4 9 12 19 17 11 5 41 27 66 49 26 22 62 49 80 60 18 11 55
35 81 54 100 70 314 211 321 211 3 0 16 9 27 19 20 19 77 52 176 103 25 13 47
26 50 30 3 3 39 22 80 42 41 19 100 49 130 66 30 16 114 57 185 91 182 85 207
96 235 104 14 4 30 11 35 16 6 4 51 24 100 42 50 19 110 44 135 55 72 33 172
72 186 72 7 0 33 9 58 20 38 16 46 24 46 45 0 16 12 38 29 55 31 32 60 31 95
-2 11 -10 27 -18 37 -18 14 0 165 46 409 126 40 13 118 35 330 93 133 37 308
79 415 100 61 13 131 29 157 36 27 8 87 19 135 25 49 6 120 17 158 25 39 8
135 24 215 36 80 12 165 25 190 30 119 22 169 29 210 30 25 0 59 4 75 9 17 5
73 11 125 14 52 2 173 14 269 25 135 17 176 19 182 10 6 -10 18 -8 51 4 48 19
108 23 108 7 0 -5 -6 -11 -12 -11 -87 -8 -214 -26 -228 -32 -8 -4 -58 -9 -110
-11 -156 -8 -340 -25 -352 -32 -6 -4 -23 -9 -37 -11 -14 -1 -66 -10 -116 -18
-139 -23 -145 -24 -225 -35 -99 -14 -246 -40 -290 -50 -19 -5 -62 -13 -95 -18
-65 -11 -209 -44 -290 -67 -27 -7 -108 -28 -180 -44 -71 -17 -179 -44 -240
-60 -60 -16 -137 -37 -170 -46 -33 -8 -87 -27 -120 -40 -33 -14 -69 -27 -80
-28 -59 -10 -271 -80 -328 -109 -35 -17 -37 -21 -31 -56 4 -29 1 -42 -16 -59
-30 -33 -54 -28 -94 18 l-35 41 -53 -20 c-72 -27 -203 -80 -258 -104 -25 -12
-63 -27 -85 -35 -22 -7 -49 -19 -60 -26 -11 -7 -47 -23 -80 -36 -33 -13 -68
-31 -79 -40 -10 -9 -21 -16 -25 -15 -3 1 -61 -25 -128 -58 l-122 -59 1 -45 c1
-80 -59 -109 -136 -63 -41 24 -37 25 -188 -69 -51 -32 -104 -63 -118 -70 -24
-11 -77 -43 -212 -126 -35 -22 -86 -56 -114 -78 -28 -21 -54 -38 -58 -38 -5 0
-87 -60 -184 -132 -161 -121 -208 -158 -367 -291 -27 -23 -133 -125 -235 -227
-236 -235 -318 -330 -430 -495 -30 -44 -58 -82 -61 -85 -3 -3 -21 -32 -41 -65
-97 -163 -167 -335 -169 -415 -1 -46 -49 -244 -74 -305 -6 -16 -18 -48 -25
-70 -7 -22 -25 -67 -40 -100 -15 -33 -35 -78 -45 -100 -10 -22 -35 -67 -57
-99 -21 -33 -38 -67 -38 -75 0 -9 -11 -34 -25 -56 -13 -22 -25 -47 -25 -55 0
-8 -16 -46 -35 -85 -34 -68 -35 -74 -35 -184 0 -67 7 -152 17 -204 12 -63 14
-92 7 -94 -12 -4 3 -92 25 -146 6 -16 11 -37 11 -48 0 -17 -3 -18 -22 -7 -13
7 -75 65 -138 129 -122 124 -150 155 -150 167 0 4 -12 19 -27 34 -16 15 -37
36 -47 47 -24 26 -40 17 -32 -18 10 -48 47 -186 56 -206 20 -48 29 -86 40
-170 6 -49 20 -119 30 -155 10 -36 22 -76 25 -90 3 -14 17 -61 30 -105 46
-152 75 -270 85 -345 33 -247 40 -310 40 -338 0 -18 5 -32 11 -32 6 0 8 -9 4
-20 -4 -12 -2 -26 3 -33 12 -15 43 -109 38 -114 -3 -4 -46 63 -46 73 0 2 -17
27 -37 56 -46 64 -55 46 -18 -37 14 -32 25 -64 25 -71 0 -8 5 -14 10 -14 6 0
10 -5 10 -10 0 -6 19 -50 41 -98 23 -48 62 -130 86 -182 25 -52 56 -109 68
-126 25 -32 59 -104 57 -116 -1 -5 2 -8 8 -8 5 0 10 -8 10 -17 0 -10 14 -45
30 -78 16 -33 30 -66 30 -72 0 -7 3 -13 8 -13 4 0 16 -17 27 -37 11 -21 22
-40 25 -43 5 -5 25 -40 57 -100 10 -19 21 -37 24 -40 4 -3 16 -24 27 -47 12
-22 25 -43 30 -45 5 -1 25 -33 46 -70 20 -36 43 -72 51 -78 8 -7 13 -16 10
-20 -2 -4 4 -15 15 -25 11 -10 20 -24 20 -32 0 -7 6 -16 14 -19 8 -3 18 -19
21 -36 4 -16 13 -32 21 -35 8 -3 14 -13 14 -22 0 -9 5 -22 12 -29 19 -19 -9
-42 -54 -42 l-40 0 7 80 7 80 -46 0 c-31 0 -48 5 -52 14 -3 8 -18 19 -34 26
-33 14 -48 40 -22 40 17 0 39 26 54 63 4 9 4 17 0 17 -4 0 -13 -14 -19 -31
-10 -27 -14 -29 -32 -19 -11 6 -25 19 -31 30 -14 26 -30 26 -30 0 0 -28 -25
-15 -40 20 -7 16 -18 31 -26 34 -8 3 -14 15 -14 26 0 13 -7 20 -20 20 -11 0
-23 6 -26 14 -3 8 -18 19 -34 26 -16 7 -31 18 -34 26 -3 8 -15 14 -26 14 -12
0 -65 45 -140 120 -66 66 -128 120 -137 120 -22 0 -63 42 -63 64 0 9 -8 16
-17 16 -32 0 -63 44 -63 87 0 44 -23 73 -58 73 -16 0 -22 6 -22 23 0 28 -26
54 -59 59 -24 3 -91 57 -91 73 0 8 -77 85 -84 85 -3 0 -6 -10 -8 -23 l-3 -22
-20 23 c-11 12 -27 22 -37 22 -10 0 -18 7 -18 18 0 21 -42 62 -64 62 -9 0 -16
8 -16 18 0 25 -44 62 -73 62 -25 0 -87 51 -87 71 0 5 -4 9 -9 9 -5 0 -19 29
-31 65 -12 36 -26 67 -31 70 -5 4 -9 35 -9 71 0 56 -11 98 -31 114 -3 3 -12
22 -18 43 -7 20 -17 37 -22 37 -5 0 -27 18 -49 40 -33 33 -40 47 -40 80 0 30
-4 40 -16 40 -22 0 -64 41 -64 63 0 9 -6 17 -13 17 -15 0 -41 65 -32 80 3 6
-2 13 -11 17 -10 4 -19 2 -22 -5 -2 -6 -21 7 -43 29 -21 21 -48 39 -59 39 -17
0 -20 7 -20 40 0 38 2 40 30 40 28 0 30 2 30 40 0 48 -17 54 -22 8 l-3 -33
-32 33 c-36 37 -41 39 -45 12 -4 -26 -27 -12 -33 21 -2 13 -14 30 -25 38 -11
7 -20 20 -20 27 0 8 -5 14 -11 14 -7 0 -22 10 -33 23 -12 12 -31 27 -42 34
-16 10 -17 14 -5 21 11 8 -1 25 -55 81 -91 93 -97 99 -130 129 -26 23 -27 26
-9 32 17 6 17 8 -5 30 -21 21 -24 22 -29 7 -6 -15 -9 -15 -26 -3 -11 8 -29 31
-40 53 -32 60 -62 103 -90 124 -23 19 -25 26 -25 105 0 52 -4 84 -10 84 -7 0
-10 21 -9 51 2 43 -1 54 -20 68 -12 10 -22 24 -21 32 5 32 -1 56 -19 76 -13
14 -21 43 -26 97 -5 54 -11 76 -21 76 -10 0 -14 13 -14 44 0 44 0 44 34 42 38
-3 126 -54 126 -73 0 -7 9 -13 20 -13 11 0 20 -7 20 -15 0 -8 5 -15 10 -15 6
0 53 -43 105 -96 51 -53 98 -93 103 -90 5 3 12 17 14 31 4 19 1 25 -12 25 -11
0 -24 14 -33 38 -9 21 -27 52 -41 69 -14 17 -26 43 -26 57 0 26 0 26 80 26 64
0 80 -3 80 -15 0 -8 5 -15 10 -15 6 0 10 7 10 15 0 8 5 15 10 15 6 0 10 -7 10
-15 0 -8 7 -15 15 -15 23 0 18 24 -20 87 -19 32 -35 63 -35 69 0 7 -7 14 -15
18 -8 3 -15 10 -15 16 0 6 -11 26 -25 44 -14 18 -25 38 -25 44 0 7 -4 12 -10
12 -5 0 -12 11 -16 25 -3 14 -10 25 -14 25 -4 0 -13 14 -20 31 -7 17 -18 36
-24 42 -13 14 -89 127 -95 142 -2 5 -24 39 -49 75 -25 36 -83 120 -128 187
-76 113 -109 160 -133 189 -5 6 -40 58 -78 115 -188 283 -346 499 -366 499 -2
0 -2 -20 0 -44 3 -26 0 -52 -8 -67 -8 -13 -21 -58 -29 -99 -15 -71 -18 -76
-55 -97 l-40 -22 -27 26 c-14 14 -36 51 -48 83 -12 32 -30 66 -41 76 -10 9
-19 23 -19 31 0 7 -4 13 -10 13 -5 0 -10 7 -10 14 0 8 -13 34 -29 58 -16 24
-34 63 -41 88 -6 25 -17 52 -24 60 -7 8 -18 34 -26 58 -7 23 -16 42 -20 42 -3
0 -12 16 -19 35 -7 19 -16 35 -21 35 -5 0 -17 16 -26 36 l-17 35 -15 -31 c-25
-51 -23 -29 4 56 13 43 38 121 54 172 44 139 84 438 75 567 -13 195 -25 273
-69 429 -57 200 -75 236 -190 364 -16 18 -44 57 -60 86 -17 30 -49 74 -71 98
-22 23 -75 84 -116 133 -42 50 -90 101 -105 115 -16 14 -77 67 -135 118 -137
120 -395 299 -541 376 -46 24 -117 61 -158 83 -41 22 -115 57 -165 78 -49 21
-118 51 -153 66 -35 16 -69 29 -76 29 -7 0 -16 3 -20 7 -15 15 -406 158 -460
168 l-36 7 0 -135z m12425 -776 c43 -9 37 -12 -37 -17 -26 -2 -56 -8 -67 -14
-25 -13 -161 -13 -161 0 0 6 -14 10 -32 10 -17 0 -29 3 -26 6 3 3 24 5 47 6
23 0 44 4 47 9 7 11 175 11 229 0z m358 2 c-13 -2 -33 -2 -45 0 -13 2 -3 4 22
4 25 0 35 -2 23 -4z m367 -21 c-7 -3 -15 -1 -17 5 -2 6 -24 6 -56 2 -74 -11
-117 -10 -117 1 0 12 159 18 185 6 15 -7 17 -10 5 -14z m238 13 c152 -5 252
-16 291 -31 32 -12 20 -13 -114 -7 -221 9 -281 17 -289 40 -4 8 -1 11 5 7 6
-3 54 -7 107 -9z m546 -407 c11 -16 25 -22 45 -20 24 2 35 -5 56 -32 38 -50
30 -72 -23 -69 -25 1 -40 -2 -37 -8 10 -15 -25 -10 -41 6 -9 8 -27 15 -42 15
-37 1 -70 21 -87 54 -18 34 -11 49 21 43 17 -3 25 1 29 14 9 27 60 25 79 -3z
m-2023 2 c20 -6 44 -19 54 -30 17 -19 17 -25 6 -57 -13 -34 -12 -38 9 -55 12
-10 32 -18 44 -19 20 -1 20 -1 1 -7 -11 -4 -32 -15 -48 -26 -50 -34 -182 -22
-229 21 -36 32 -15 121 36 153 17 11 50 22 86 29 3 0 21 -4 41 -9z m1237 -71
c36 -12 47 -36 33 -72 -13 -34 -53 -45 -86 -23 -33 21 -34 69 -3 90 12 9 23
16 24 16 0 0 15 -5 32 -11z m-2699 -44 c16 -21 18 -31 10 -54 -10 -27 -44 -51
-73 -51 -49 0 -79 88 -41 116 31 23 81 17 104 -11z m1644 -24 c17 -6 17 -8 -2
-25 -12 -11 -24 -16 -28 -13 -3 4 -1 7 5 7 7 0 12 5 12 10 0 6 -7 10 -15 10
-8 0 -15 5 -15 10 0 11 17 12 43 1z m1911 -52 c30 -25 78 -37 193 -48 118 -12
194 -41 257 -98 67 -61 77 -89 76 -211 -1 -161 -1 -165 18 -190 9 -13 27 -42
39 -65 20 -40 20 -42 3 -45 -10 -2 -38 11 -61 28 -29 21 -46 27 -53 20 -15
-15 -42 -12 -57 7 -8 9 -39 34 -69 57 -78 57 -78 57 -124 99 -22 22 -82 59
-132 83 -92 45 -121 69 -161 134 -27 44 -39 114 -25 143 5 12 13 30 16 40 3 9
15 17 26 17 16 0 20 7 21 38 0 20 3 30 6 22 4 -8 16 -22 27 -31z m-417 -43
c25 -21 26 -26 15 -50 -15 -33 -53 -49 -86 -36 -44 16 -46 83 -3 100 34 14 44
12 74 -14z m-3248 -137 c92 -15 119 -26 172 -73 25 -23 60 -49 77 -58 36 -19
40 -42 20 -112 -34 -120 -167 -169 -431 -162 -110 3 -141 8 -179 25 -61 29
-108 77 -108 110 0 18 -9 31 -30 43 -22 13 -30 24 -30 45 0 49 11 71 42 84 25
10 34 10 59 -5 l30 -18 101 66 c93 61 105 66 156 66 30 0 85 -5 121 -11z
m2576 -5 c25 -10 37 -51 24 -77 -16 -30 -28 -37 -66 -37 -30 0 -73 31 -73 53
0 13 22 51 34 59 14 9 59 10 81 2z m2298 -47 c20 -24 19 -19 7 -52 -6 -15 -24
-32 -45 -41 -20 -8 -34 -18 -31 -22 2 -4 29 -25 60 -47 58 -42 76 -69 56 -89
-18 -18 -226 -13 -280 8 -65 25 -104 75 -117 149 -9 57 41 91 177 117 61 12
153 -1 173 -23z m1041 7 c19 -18 19 -20 6 -45 -13 -23 -58 -26 -67 -3 -7 19
16 64 33 64 7 0 20 -7 28 -16z m-7300 -60 c20 -20 21 -68 0 -84 -39 -33 -104
-5 -104 44 0 48 70 75 104 40z m3664 -10 c31 -21 30 -69 -3 -90 -60 -40 -132
49 -73 90 12 9 29 16 38 16 9 0 26 -7 38 -16z m2825 -100 c12 -13 -6 -34 -29
-34 -22 0 -23 3 -14 20 10 19 31 26 43 14z m1525 -56 c7 -7 12 -21 12 -33 0
-12 -5 -26 -12 -33 -7 -7 -21 -12 -33 -12 -12 0 -26 5 -33 12 -7 7 -12 21 -12
33 0 12 5 26 12 33 7 7 21 12 33 12 12 0 26 -5 33 -12z m-3497 -97 c35 -35 37
-64 7 -85 -63 -45 -152 28 -105 86 28 35 61 35 98 -1z m3162 -2 c19 -27 11
-54 -20 -68 -49 -22 -98 40 -61 77 19 19 65 14 81 -9z m-7205 -1 c16 -16 15
-63 -2 -77 -8 -7 -30 -11 -48 -9 -67 6 -57 98 12 98 14 0 31 -5 38 -12z m167
-38 c24 -27 13 -65 -22 -77 -38 -13 -58 -6 -73 22 -12 22 -11 28 10 50 28 30
61 32 85 5z m2208 -11 c11 -42 -18 -68 -54 -49 -36 20 -17 70 27 70 14 0 24
-8 27 -21z m845 -5 c41 -29 19 -94 -33 -94 -52 0 -78 76 -32 98 31 15 39 14
65 -4z m3736 -85 c-11 -18 -24 -8 -24 19 1 26 1 26 15 8 8 -10 12 -23 9 -27z
m-3430 -19 c7 0 12 -10 11 -22 -2 -33 -50 -38 -60 -7 -5 16 -2 26 11 36 12 9
20 10 22 3 2 -5 9 -10 16 -10z m3020 -36 c32 -32 13 -74 -34 -74 -31 0 -50 17
-50 45 0 43 53 61 84 29z m-7986 -76 c19 -19 14 -46 -13 -64 -23 -15 -27 -15
-50 0 -43 28 -27 76 25 76 14 0 31 -5 38 -12z m3374 -45 c33 -29 17 -83 -24
-83 -26 0 -59 36 -51 57 16 46 43 55 75 26z m1384 -19 c21 -15 41 -29 44 -33
17 -21 110 -47 110 -31 0 5 7 10 15 10 9 0 15 -10 15 -26 0 -16 13 -39 33 -59
55 -55 63 -77 41 -121 -28 -56 -71 -77 -170 -82 -93 -5 -124 7 -124 46 0 11
-84 49 -125 57 -56 11 -85 27 -105 60 -32 51 -26 98 16 145 41 45 74 58 155
59 45 1 64 -4 95 -25z m-1056 -44 c15 -27 -7 -60 -40 -60 -30 0 -50 17 -50 40
0 41 70 57 90 20z m5080 -11 c78 -18 180 -69 180 -89 0 -5 14 -17 30 -27 20
-12 34 -30 40 -55 7 -23 22 -45 43 -60 17 -12 44 -35 59 -50 15 -16 32 -28 39
-28 11 0 48 -39 49 -52 0 -13 -17 -9 -74 17 -30 14 -59 25 -64 25 -5 0 -15 7
-22 15 -7 8 -16 13 -20 10 -4 -3 -34 13 -66 34 -43 28 -84 44 -149 59 -169 39
-221 66 -273 139 -64 90 15 112 228 62z m-2628 4 c22 -20 23 -41 1 -65 -20
-22 -56 -23 -77 -2 -48 48 25 113 76 67z m-3051 -43 c41 -22 8 -91 -35 -74
-26 10 -32 55 -11 71 22 16 21 16 46 3z m-277 -69 c7 -26 7 -36 -2 -39 -21 -7
-13 -40 16 -62 22 -18 35 -21 72 -15 25 3 70 10 100 14 30 5 69 13 87 19 17 6
33 8 35 6 3 -2 26 -5 52 -5 26 -1 49 -6 52 -11 3 -4 16 -8 29 -8 36 0 85 -52
85 -90 0 -38 -32 -69 -73 -70 -40 0 -77 -28 -77 -56 0 -13 5 -24 10 -24 38 0
-30 -76 -75 -83 -37 -6 -170 -100 -205 -145 -11 -14 -31 -31 -43 -38 -79 -47
-125 -55 -151 -28 -9 9 -41 19 -71 23 -30 4 -64 16 -75 26 -22 20 -27 60 -9
71 22 13 -10 26 -77 32 -51 4 -78 12 -106 31 -20 14 -37 31 -38 37 0 21 90
134 123 154 17 11 55 27 82 36 28 9 59 25 71 35 22 21 76 21 97 0 6 -6 24 -11
39 -11 35 0 36 14 7 127 -17 68 -19 86 -9 99 20 23 43 12 54 -25z m-2612 -8
c23 -26 59 -151 52 -179 -11 -42 5 -129 26 -141 25 -16 200 -29 200 -15 0 24
35 -1 37 -26 0 -14 6 -28 12 -30 23 -8 81 -78 92 -111 11 -33 10 -36 -20 -62
-18 -14 -44 -48 -58 -74 -22 -43 -23 -49 -9 -57 23 -13 20 -31 -9 -58 -30 -28
-31 -49 -7 -81 49 -63 92 -130 92 -144 0 -29 -26 -15 -105 59 -52 48 -83 70
-87 63 -4 -7 -8 -42 -8 -79 0 -113 -34 -100 -71 27 -12 38 -25 74 -30 80 -5 5
-9 21 -9 36 0 21 -6 28 -28 32 -19 4 -33 16 -44 40 -14 29 -26 38 -75 53 -106
33 -117 49 -128 184 l-6 75 41 40 c22 21 40 47 40 57 0 10 -17 40 -38 68 -60
79 -122 188 -122 215 0 49 23 40 92 -36 46 -50 81 -101 107 -156 22 -46 45
-83 51 -83 7 0 9 8 4 23 -38 119 -55 257 -34 282 16 19 23 19 42 -2z m5018
-48 c19 -23 -3 -43 -24 -22 -9 9 -16 20 -16 26 0 16 26 13 40 -4z m-4836 -24
c4 -5 3 -17 0 -26 -5 -13 -8 -14 -15 -3 -7 10 -9 11 -9 0 0 -7 -4 -10 -10 -7
-18 11 -11 45 9 45 11 0 22 -4 25 -9z m6416 -26 c15 -18 7 -43 -16 -52 -24 -9
-46 24 -33 48 12 23 32 24 49 4z m938 -67 c-5 -34 -38 -37 -38 -4 0 20 5 26
21 26 15 0 20 -5 17 -22z m-3780 -20 c4 -32 -22 -50 -55 -37 -15 5 -23 17 -23
32 0 32 9 39 45 35 24 -2 31 -8 33 -30z m5870 -7 c24 -15 10 -56 -19 -59 -34
-4 -54 20 -39 47 11 22 35 27 58 12z m-778 -37 c0 -8 -4 -12 -10 -9 -5 3 -10
10 -10 16 0 5 5 9 10 9 6 0 10 -7 10 -16z m-2484 -40 c59 -25 91 -51 99 -81 3
-15 10 -30 15 -33 15 -10 -10 -50 -37 -61 -74 -30 -183 -48 -290 -49 -125 0
-131 3 -153 80 -15 53 17 116 67 130 120 34 238 39 299 14z m342 -56 c2 -11
-4 -14 -28 -10 -24 3 -36 -2 -55 -22 -21 -23 -28 -25 -47 -15 -21 11 -21 12
-2 26 12 8 20 10 22 3 2 -5 8 -10 13 -10 4 0 6 7 3 15 -4 10 3 16 23 20 15 4
33 8 38 10 17 6 30 -1 33 -17z m167 -8 c22 -10 43 -16 47 -14 10 6 30 -45 23
-56 -3 -5 -1 -17 4 -27 5 -10 15 -33 21 -50 8 -22 19 -33 32 -33 33 0 59 -20
58 -43 -4 -43 -2 -45 46 -39 45 5 46 4 35 -17 -7 -11 -18 -21 -25 -21 -8 0
-19 -6 -25 -14 -7 -8 -28 -17 -49 -21 -20 -4 -52 -14 -70 -22 -27 -13 -40 -14
-70 -5 -20 6 -59 13 -85 16 -94 11 -228 100 -243 163 -15 60 31 120 114 149
30 11 50 24 48 30 -3 7 -2 15 1 18 13 13 100 4 138 -14z m-1185 -10 c17 -32 9
-84 -14 -89 -40 -7 -65 77 -28 98 24 15 30 14 42 -9z m1597 -36 c9 -23 -13
-40 -32 -24 -12 10 -13 16 -4 26 15 18 28 18 36 -2z m-3956 -10 c17 -21 0 -49
-31 -49 -27 0 -46 25 -37 49 8 21 51 21 68 0z m6135 -40 c16 -11 28 -13 41 -6
28 15 104 -2 125 -28 13 -17 18 -18 18 -7 0 19 32 31 60 22 25 -8 70 -62 70
-85 0 -29 -74 -87 -131 -104 -108 -32 -171 -38 -287 -27 -120 12 -167 26 -238
67 -122 72 -81 154 96 188 50 9 222 -5 246 -20z m-8642 -15 c14 -7 27 -18 31
-27 8 -22 -20 -58 -50 -66 -60 -15 -101 54 -53 88 27 19 39 20 72 5z m3931 1
c3 -5 -1 -10 -10 -10 -9 0 -13 5 -10 10 3 6 8 10 10 10 2 0 7 -4 10 -10z
m-2655 -30 c0 -23 -11 -41 -40 -70 -38 -37 -40 -43 -40 -97 0 -54 2 -59 33
-80 56 -38 99 -51 207 -63 93 -10 120 -9 235 9 72 11 150 28 175 37 92 32 225
88 237 99 16 17 73 39 80 32 6 -7 -42 -55 -87 -87 -40 -29 -236 -110 -315
-131 -38 -11 -122 -24 -185 -31 -104 -10 -126 -9 -234 10 l-119 21 -53 -31
c-52 -29 -55 -29 -79 -14 -19 12 -24 22 -20 39 7 28 7 73 -1 154 -6 66 -4 74
54 161 38 59 57 70 115 71 35 1 37 -1 37 -29z m-3590 -15 c10 -12 10 -18 0
-30 -27 -32 -71 -8 -56 30 3 8 14 15 24 15 11 0 25 -7 32 -15z m7884 -11 c21
-21 3 -57 -26 -52 -30 4 -45 32 -29 52 17 20 35 20 55 0z m1003 -10 c12 -19
12 -24 -2 -38 -26 -25 -63 -20 -77 10 -11 23 -10 28 7 40 26 19 54 14 72 -12z
m-5177 -35 c0 -11 -27 -12 -34 0 -3 4 -3 11 0 14 8 8 34 -3 34 -14z m8308 -1
c2 -9 -5 -21 -16 -27 -25 -14 -58 9 -49 33 9 23 61 18 65 -6z m-10976 -113
c80 -17 107 -33 143 -87 33 -50 28 -77 -23 -127 -29 -28 -44 -35 -68 -33 -25
2 -33 -1 -37 -18 -4 -17 -10 -20 -29 -15 -13 4 -30 15 -38 24 -18 20 -76 35
-85 21 -3 -5 0 -12 5 -15 6 -4 24 -24 38 -45 l28 -37 61 16 c50 13 74 27 127
75 74 67 86 97 63 161 -15 43 -8 86 15 84 7 0 31 -10 53 -22 39 -22 40 -23 45
-87 5 -56 3 -67 -13 -79 -14 -10 -17 -21 -13 -45 3 -17 -1 -62 -9 -101 -13
-65 -18 -74 -72 -124 -108 -100 -125 -110 -258 -146 -156 -42 -226 -40 -375 7
-80 25 -85 30 -109 84 -17 39 -18 47 -6 88 8 25 19 54 25 65 13 26 -2 28 -44
6 -39 -21 -52 -6 -32 34 9 17 21 31 26 31 6 0 10 7 10 15 0 8 -9 15 -19 15
-11 0 -23 5 -26 10 -11 17 -71 11 -98 -10 -14 -11 -27 -20 -30 -20 -14 0 -15
36 -3 63 8 18 16 40 19 49 4 11 13 15 27 11 16 -4 23 0 27 16 3 11 12 21 20
21 17 0 48 29 48 44 0 19 46 19 60 0 12 -17 19 -15 110 25 54 24 119 47 144
51 76 13 222 11 293 -5z m6762 -7 c30 -42 -23 -84 -69 -54 -29 19 -33 51 -7
65 28 17 60 12 76 -11z m-7314 -28 c0 -5 -4 -10 -10 -10 -5 0 -10 5 -10 10 0
6 5 10 10 10 6 0 10 -4 10 -10z m2173 -12 c7 -23 -4 -38 -29 -38 -17 0 -24 6
-24 18 0 10 3 22 7 25 11 12 41 8 46 -5z m-2805 -50 c18 -18 14 -36 -12 -53
-19 -13 -29 -14 -45 -5 -38 20 -20 70 24 70 12 0 26 -5 33 -12z m10692 -16
c19 -16 21 -22 11 -40 -9 -16 -21 -22 -46 -22 -25 0 -37 6 -46 22 -10 18 -8
24 11 40 12 10 28 18 35 18 7 0 23 -8 35 -18z m-4102 -18 c20 -14 23 -23 20
-67 -3 -51 -4 -53 -60 -90 -67 -45 -158 -68 -188 -49 -13 8 -41 10 -87 5 -135
-13 -185 -10 -220 15 -19 13 -33 32 -33 44 0 29 59 79 127 108 52 22 72 25
194 26 80 0 143 5 155 12 27 16 66 15 92 -4z m-4947 -13 c20 -16 22 -21 10
-35 -11 -13 -11 -20 -3 -28 30 -30 -5 -77 -42 -56 -12 7 -16 17 -12 34 5 17 2
24 -8 24 -26 0 -40 28 -28 55 14 30 50 33 83 6z m5929 -31 c0 -30 -22 -60 -44
-60 -38 0 -44 60 -10 94 23 23 54 4 54 -34z m-4037 -57 c3 -19 -2 -33 -19 -50
-28 -28 -58 -29 -84 -3 -34 34 3 79 66 80 26 0 33 -4 37 -27z m4865 -44 c2 -9
-4 -19 -12 -22 -19 -8 -51 17 -42 32 11 17 50 9 54 -10z m-5352 -44 c6 -15 82
-55 104 -55 6 0 36 -13 68 -29 54 -28 110 -83 143 -141 8 -14 19 -32 26 -40
19 -24 21 -60 8 -122 -7 -35 -8 -61 -2 -67 6 -6 1 -14 -12 -20 -11 -7 -30 -29
-41 -50 -10 -22 -32 -49 -47 -61 -44 -34 -103 -70 -114 -70 -6 0 -17 -7 -26
-15 -16 -17 -33 -12 -33 9 0 14 -37 25 -58 18 -7 -2 -12 -12 -12 -22 0 -10
-21 -64 -47 -119 -25 -56 -44 -103 -42 -106 3 -2 25 1 49 6 140 33 296 -54
292 -161 -3 -86 -34 -183 -52 -164 -4 5 -3 36 2 70 10 57 9 63 -17 103 -36 57
-94 83 -202 89 -45 2 -90 1 -100 -2 -17 -7 -17 -8 0 -17 21 -12 13 -29 -12
-29 -10 0 -24 -6 -30 -14 -17 -20 5 -31 32 -18 88 43 97 45 115 30 9 -9 32
-18 49 -21 18 -4 45 -14 59 -24 24 -16 26 -21 22 -79 -3 -56 -10 -72 -51 -132
-26 -38 -59 -74 -73 -80 -14 -7 -43 -27 -65 -44 -32 -26 -51 -33 -98 -36 l-58
-4 -12 33 c-7 19 -17 42 -22 51 -16 31 -10 48 24 62 17 8 55 24 83 36 29 13
65 20 84 18 28 -2 36 1 47 22 10 20 10 29 -1 45 -18 27 -54 31 -71 8 -13 -18
-30 -12 -30 10 -1 39 -199 -66 -271 -144 -57 -62 -92 -138 -95 -204 -3 -64 5
-100 27 -126 23 -26 145 -63 179 -55 22 6 26 9 14 17 -9 5 -9 9 -2 9 6 0 14
-4 17 -9 4 -5 23 -1 44 9 21 10 49 16 63 13 15 -3 71 10 133 31 123 41 116 40
116 24 -1 -13 -29 -28 -152 -82 -32 -14 -58 -31 -58 -37 0 -5 8 -8 18 -5 9 3
35 8 57 12 22 3 54 15 71 25 33 20 59 25 50 10 -11 -17 -137 -60 -301 -103
-22 -5 -70 -10 -107 -9 -74 1 -121 19 -174 68 -57 53 -64 70 -64 165 0 81 3
94 34 156 56 108 156 215 261 279 33 20 62 38 64 40 3 2 -5 13 -18 24 -23 21
-36 20 -123 -16 -34 -14 -19 23 18 45 25 16 32 26 25 33 -17 17 -13 37 7 37
10 0 23 -5 30 -12 12 -12 11 -15 31 58 15 58 16 57 -31 50 -67 -11 -71 -11
-113 -23 -84 -23 -115 -25 -115 -7 0 12 6 15 24 10 14 -3 27 -2 30 3 3 5 43
30 89 57 45 26 102 59 127 75 25 15 73 41 108 59 61 31 84 58 40 47 -34 -9
-78 37 -78 80 0 31 33 104 81 180 l20 31 -38 19 c-21 10 -38 24 -38 32 0 7 21
21 47 31 63 24 102 54 85 67 -23 19 -118 24 -134 8 -15 -15 -68 -20 -96 -9
-13 5 -12 13 9 51 21 40 36 52 107 89 95 49 96 49 103 29z m2592 -18 c4 -20
-25 -34 -40 -19 -15 15 -1 44 19 40 10 -2 19 -11 21 -21z m276 -23 c22 -21 20
-31 -8 -49 -30 -20 -75 -4 -76 27 0 13 32 38 50 38 10 0 26 -7 34 -16z m1821
-14 c0 -30 -35 -40 -55 -15 -10 12 -10 18 0 30 20 25 55 15 55 -15z m-2735 5
c0 -8 -6 -15 -14 -15 -17 0 -28 14 -19 24 12 12 33 6 33 -9z m4665 5 c3 -5 -1
-10 -10 -10 -9 0 -13 5 -10 10 3 6 8 10 10 10 2 0 7 -4 10 -10z m-3269 -25
c24 -24 25 -28 11 -48 -9 -14 -27 -23 -49 -25 -61 -5 -92 50 -46 82 32 23 55
20 84 -9z m1662 -2 c3 -22 -28 -40 -48 -28 -12 7 -13 38 -3 49 15 14 48 1 51
-21z m-831 -44 c34 -11 64 -27 67 -35 3 -9 -1 -31 -10 -50 -19 -40 -44 -43
-131 -18 -41 12 -66 27 -94 57 -21 23 -35 45 -32 50 19 31 98 30 200 -4z
m1755 -17 c52 -58 77 -72 128 -72 71 -1 120 -16 154 -49 17 -16 44 -35 59 -40
31 -12 32 -34 1 -39 -38 -6 -159 -56 -172 -71 -12 -14 -15 -14 -31 5 -9 12
-31 25 -47 28 -27 6 -32 3 -47 -29 -9 -20 -17 -45 -17 -57 0 -71 240 -361 426
-514 97 -80 149 -130 114 -109 -28 16 -175 118 -180 124 -3 4 -27 24 -55 46
-27 22 -63 53 -78 70 -36 39 -50 53 -128 127 -114 109 -208 265 -209 344 0 17
5 45 11 63 10 29 9 33 -15 52 -14 11 -31 29 -36 40 -9 16 -7 21 14 30 17 8 26
22 30 50 8 51 32 51 78 1z m-5477 -2 c-3 -5 -10 -10 -16 -10 -5 0 -9 5 -9 10
0 6 7 10 16 10 8 0 12 -4 9 -10z m9694 -57 c75 -91 200 -359 263 -563 29 -95
68 -277 68 -315 -1 -18 -2 -18 -10 -4 -6 10 -40 104 -76 210 -67 196 -115 312
-205 494 -27 55 -49 105 -49 111 0 6 -9 29 -20 52 -11 22 -20 44 -20 47 0 15
22 1 49 -32z m-13673 -15 c8 -13 -16 -38 -38 -38 -23 0 -34 25 -19 44 12 14
47 11 57 -6z m2206 -10 c-9 -9 -15 -9 -24 0 -10 10 -10 15 2 22 9 6 19 5 24 0
7 -7 6 -14 -2 -22z m3692 -3 c-3 -7 -13 -15 -22 -18 -9 -3 -25 -8 -35 -12 -16
-6 -18 -4 -15 16 2 15 12 25 28 29 32 8 50 2 44 -15z m-1999 -5 c0 -8 -10 -16
-22 -18 -22 -3 -32 16 -16 32 12 11 38 2 38 -14z m722 -16 c7 -20 -12 -33 -38
-27 -19 5 -25 24 -12 36 12 13 44 7 50 -9z m-3519 -33 c53 -39 62 -54 25 -45
-35 9 -103 51 -103 64 0 19 37 10 78 -19z m9520 8 c4 -19 -19 -31 -38 -19 -18
11 -4 42 17 38 10 -2 19 -10 21 -19z m-10518 -4 c0 -8 -9 -15 -20 -15 -11 0
-20 7 -20 15 0 8 9 15 20 15 11 0 20 -7 20 -15z m250 5 c0 -5 -9 -10 -21 -10
-11 0 -17 5 -14 10 3 6 13 10 21 10 8 0 14 -4 14 -10z m4510 -11 c0 -15 -5
-20 -22 -17 -34 5 -37 38 -4 38 20 0 26 -5 26 -21z m3640 6 c10 -12 10 -18 0
-30 -27 -32 -71 -8 -56 30 3 8 14 15 24 15 11 0 25 -7 32 -15z m-6330 -25 c0
-16 -26 -29 -40 -20 -11 7 -11 11 -1 24 12 14 41 12 41 -4z m1940 10 c0 -5 -7
-10 -16 -10 -8 0 -12 5 -9 10 3 6 10 10 16 10 5 0 9 -4 9 -10z m1285 -28 c-5
-5 22 -23 62 -41 12 -6 29 -21 38 -35 9 -14 32 -34 51 -45 19 -11 34 -25 34
-31 0 -5 -13 -29 -30 -51 -16 -23 -27 -46 -24 -50 3 -5 22 -18 43 -28 77 -40
69 -46 -57 -45 -170 2 -262 25 -312 79 -14 14 -41 41 -60 58 -58 53 -90 89
-90 99 0 12 72 44 143 62 31 8 76 26 99 40 39 23 42 24 74 8 19 -8 32 -18 29
-20z m-2067 5 c4 -20 -25 -34 -40 -19 -15 15 -1 44 19 40 10 -2 19 -11 21 -21z
m3066 1 c26 -42 -33 -73 -74 -40 -20 16 -21 21 -11 41 9 17 20 21 43 19 17 -2
36 -11 42 -20z m2514 6 c26 -18 29 -50 5 -62 -36 -18 -91 -21 -97 -5 -16 40
12 83 54 83 9 0 26 -7 38 -16z m-4188 -4 c0 -5 -4 -10 -10 -10 -5 0 -10 5 -10
10 0 6 5 10 10 10 6 0 10 -4 10 -10z m2381 -36 c11 -10 19 -31 19 -49 0 -24 6
-35 24 -43 34 -15 59 -56 51 -82 -3 -11 -20 -27 -37 -36 -30 -16 -41 -15 -155
2 -34 5 -47 2 -69 -15 -34 -26 -58 -26 -100 -1 -55 34 -54 80 2 116 29 20 96
14 123 -10 11 -10 25 -14 35 -10 14 5 12 10 -14 25 -36 22 -44 40 -36 73 13
51 113 70 157 30z m-2937 -30 c9 -3 16 -16 16 -29 0 -38 -61 -50 -80 -16 -17
33 22 61 64 45z m2661 -34 c0 -18 -6 -26 -23 -28 -24 -4 -38 18 -28 44 3 9 15
14 28 12 17 -2 23 -10 23 -28z m6580 0 c3 -5 1 -10 -4 -10 -6 0 -11 5 -11 10
0 6 2 10 4 10 3 0 8 -4 11 -10z m-7187 -12 c31 -31 -11 -69 -54 -49 -39 17
-24 61 21 61 12 0 26 -5 33 -12z m2960 -30 c3 -13 -3 -18 -22 -18 -20 0 -26 5
-26 21 0 15 5 20 22 17 13 -2 24 -11 26 -20z m-4810 -9 c-2 -6 -8 -10 -13 -10
-5 0 -11 4 -13 10 -2 6 4 11 13 11 9 0 15 -5 13 -11z m2942 -14 c19 -23 4 -47
-27 -43 -31 3 -44 35 -21 49 19 13 34 11 48 -6z m2785 3 c39 -17 68 -80 54
-112 -36 -78 -231 -73 -258 6 -13 37 5 46 63 30 36 -9 44 -8 62 9 11 10 26 19
32 19 21 0 13 29 -10 32 -12 2 -23 9 -26 16 -5 16 48 16 83 0z m-7235 -8 c0
-5 -4 -10 -10 -10 -5 0 -10 5 -10 10 0 6 5 10 10 10 6 0 10 -4 10 -10z m5200
-11 c15 -27 -4 -51 -38 -47 -33 4 -50 31 -33 52 19 23 58 20 71 -5z m-513 -5
c7 -20 -17 -37 -34 -23 -15 13 -6 39 13 39 8 0 17 -7 21 -16z m-1374 -33 c36
-14 44 -47 18 -75 -14 -15 -17 -26 -11 -36 5 -8 10 -29 10 -47 0 -61 -95 -110
-165 -84 -41 14 -46 14 -38 -4 5 -13 2 -14 -21 -4 -16 7 -26 20 -26 33 0 15 3
17 12 8 22 -22 29 -13 14 17 -22 42 -8 81 40 108 21 13 47 23 57 23 10 0 17 8
17 19 0 20 34 51 57 51 6 0 23 -4 36 -9z m395 0 c8 -5 12 -17 10 -27 -4 -25
-65 -33 -74 -10 -14 37 27 61 64 37z m6847 -1 c3 -5 -1 -10 -10 -10 -9 0 -13
5 -10 10 3 6 8 10 10 10 2 0 7 -4 10 -10z m-2791 -16 c21 -8 20 -41 -1 -52
-22 -12 -63 2 -63 21 0 29 31 44 64 31z m96 -54 c0 -5 -7 -10 -15 -10 -8 0
-15 5 -15 10 0 6 7 10 15 10 8 0 15 -4 15 -10z m-2787 -62 c12 -2 21 -9 19
-17 -1 -7 0 -22 4 -33 4 -15 12 -18 31 -13 l25 6 -19 -25 c-10 -14 -21 -26
-25 -26 -5 0 -8 -6 -8 -14 0 -7 -10 -25 -21 -40 -50 -63 12 -165 121 -199 131
-41 167 -96 136 -209 -21 -76 -22 -78 -116 -154 -121 -98 -141 -108 -275 -143
-43 -11 -146 6 -152 25 -2 6 12 19 32 30 19 10 34 23 32 28 -2 5 -33 19 -70
32 -70 23 -114 47 -132 71 -8 11 -17 12 -38 4 -47 -18 -111 -13 -141 10 -50
39 -26 112 44 134 16 5 18 13 13 58 -4 42 0 66 21 118 14 36 26 69 26 74 0 15
109 141 165 191 72 63 94 74 168 84 39 6 64 15 70 25 5 9 18 20 30 24 18 7 24
4 30 -15 5 -12 18 -24 30 -26z m3915 26 c30 -21 29 -52 -4 -60 -55 -14 -101
39 -56 65 24 14 34 13 60 -5z m-4520 -6 c33 -33 -17 -78 -53 -48 -26 22 -10
60 25 60 9 0 21 -5 28 -12z m1015 -20 c15 -11 32 -28 37 -39 9 -17 7 -19 -19
-19 -16 0 -36 7 -44 15 -9 8 -17 11 -19 6 -5 -12 -78 -22 -78 -10 0 6 -7 6
-17 0 -26 -13 -167 -18 -172 -6 -4 9 16 20 112 67 10 5 25 4 36 -1 21 -12 71
-8 98 7 19 11 22 10 66 -20z m737 22 c0 -5 -4 -10 -9 -10 -6 0 -13 5 -16 10
-3 6 1 10 9 10 9 0 16 -4 16 -10z m-273 -33 c-2 -7 -13 -13 -25 -15 -26 -4
-42 26 -21 38 16 11 52 -7 46 -23z m3388 -12 c0 -13 -8 -21 -24 -23 -28 -4
-46 11 -37 33 9 25 61 16 61 -10z m-5737 -12 c6 -40 -67 -56 -82 -18 -8 21 23
47 53 43 18 -2 27 -10 29 -25z m3542 2 c17 -9 30 -19 30 -23 0 -4 25 -20 55
-36 37 -19 57 -36 61 -53 12 -47 77 -59 96 -17 9 20 17 24 35 19 31 -7 30 12
-2 37 -14 11 -25 26 -25 34 0 18 5 18 36 -3 25 -16 154 -188 154 -205 0 -17
-35 -45 -71 -57 -32 -10 -45 -9 -100 12 -195 74 -319 157 -319 215 0 15 -4 32
-9 38 -5 5 -12 19 -16 32 -5 19 -3 22 20 22 14 0 39 -7 55 -15z m550 -5 c0 -5
-4 -10 -10 -10 -5 0 -10 5 -10 10 0 6 5 10 10 10 6 0 10 -4 10 -10z m-8860
-15 c0 -8 -4 -15 -9 -15 -13 0 -22 16 -14 24 11 11 23 6 23 -9z m5284 4 c13
-7 30 -25 37 -41 11 -26 9 -32 -15 -57 l-27 -28 38 -6 c21 -4 51 -7 66 -7 35
0 102 -34 111 -55 38 -100 -76 -170 -184 -115 -22 11 -46 20 -55 20 -27 0 -63
30 -74 62 -13 36 -2 60 35 85 26 17 26 17 5 25 -15 5 -30 2 -46 -8 -27 -18
-60 -12 -69 13 -7 18 10 43 30 43 8 0 19 12 25 28 18 50 67 66 123 41z m-4484
-13 c0 -11 -19 -15 -25 -6 -3 5 1 10 9 10 9 0 16 -2 16 -4z m-102 -27 c2 -9
-4 -19 -13 -23 -23 -9 -56 11 -48 30 7 20 57 14 61 -7z m3290 -13 c35 -5 49
-23 35 -44 -13 -21 -100 -19 -122 3 -13 13 -12 17 4 35 13 14 26 19 40 15 11
-3 30 -7 43 -9z m958 -11 c20 -31 13 -52 -21 -61 -31 -8 -75 18 -75 44 0 47
69 59 96 17z m2355 12 c-1 -12 -15 -9 -19 4 -3 6 1 10 8 8 6 -3 11 -8 11 -12z
m-161 -7 c0 -5 -4 -10 -10 -10 -5 0 -10 5 -10 10 0 6 5 10 10 10 6 0 10 -4 10
-10z m-3982 -17 c2 -8 -5 -13 -17 -13 -21 0 -35 13 -24 24 10 10 36 3 41 -11z
m1402 2 c21 -25 16 -83 -8 -108 -18 -17 -34 -22 -77 -22 -63 0 -83 14 -92 68
-5 33 -2 38 28 56 41 25 130 29 149 6z m4382 -74 c100 -108 136 -170 143 -248
6 -57 5 -64 -21 -92 -30 -34 -55 -39 -78 -15 -14 14 -13 19 10 54 26 40 47
160 28 160 -6 0 -18 15 -29 33 -31 54 -97 137 -108 137 -10 0 -36 30 -37 43
-1 20 25 0 92 -72z m-7094 51 c2 -7 -6 -12 -17 -12 -21 0 -27 11 -14 24 9 9
26 2 31 -12z m2530 4 c-10 -7 -18 -21 -18 -30 0 -9 -11 -22 -25 -28 -21 -9
-28 -8 -45 7 -29 26 -9 59 31 53 17 -3 32 -1 35 4 3 4 13 8 22 8 16 -1 16 -2
0 -14z m4472 -6 c0 -11 -30 -21 -41 -14 -15 9 10 34 27 27 8 -3 14 -9 14 -13z
m2234 3 c-4 -10 -15 -37 -25 -60 -10 -24 -19 -49 -19 -56 0 -7 -4 -17 -9 -22
-15 -17 -31 -89 -21 -95 15 -9 -67 -158 -104 -189 -9 -7 -16 -21 -16 -31 0
-10 -7 -23 -15 -30 -25 -21 -11 -22 31 -3 37 17 153 89 164 103 16 18 90 70
100 70 7 0 27 10 44 23 46 34 127 79 132 74 3 -3 -14 -20 -38 -39 -48 -38
-296 -229 -312 -240 -7 -5 -3 -13 12 -23 26 -19 29 -47 6 -66 -12 -10 -25 -10
-57 -2 -51 14 -65 7 -38 -18 12 -11 21 -30 21 -42 0 -18 -2 -19 -10 -7 -8 11
-9 8 -4 -12 4 -17 1 -29 -8 -35 -8 -4 -28 -29 -45 -54 -27 -39 -32 -57 -37
-128 -7 -92 -10 -103 -31 -95 -12 5 -14 -2 -9 -37 5 -37 2 -47 -15 -63 -12
-11 -21 -24 -21 -30 0 -6 5 -4 10 4 8 13 10 13 10 -1 0 -17 -39 -39 -70 -39
-14 0 -18 -5 -13 -17 5 -13 2 -15 -11 -10 -13 5 -17 3 -13 -7 3 -8 -1 -17 -9
-20 -8 -3 -14 0 -14 6 0 6 -9 3 -20 -7 -11 -10 -20 -14 -20 -10 0 5 -11 -2
-25 -15 -14 -13 -35 -24 -47 -26 -13 -1 -25 -3 -28 -3 -3 -1 -23 -17 -45 -36
-24 -21 -51 -35 -67 -35 -15 0 -42 -9 -60 -20 -36 -22 -107 -27 -125 -9 -13
13 -14 12 -140 -186 -123 -195 -176 -272 -213 -315 l-31 -35 30 80 c35 95 104
224 155 292 84 110 106 143 106 157 0 9 9 21 20 28 21 14 27 38 9 38 -5 0 -48
-37 -93 -82 -46 -46 -90 -88 -97 -93 -22 -16 -149 -71 -206 -89 -28 -9 -74
-30 -102 -48 -28 -17 -54 -29 -57 -25 -8 8 45 54 256 222 223 178 292 236 286
242 -2 3 -20 -1 -40 -8 -28 -10 -38 -10 -50 0 -9 8 -16 19 -16 27 0 34 79 39
81 5 0 -10 3 -11 6 -4 2 7 -3 23 -11 35 -9 12 -16 35 -16 51 0 37 -57 97 -94
97 -21 0 -26 5 -26 24 0 13 5 26 11 28 6 2 0 15 -15 28 -30 29 -35 70 -8 71 9
0 51 0 92 -1 50 -1 72 2 65 9 -5 5 -32 11 -60 12 -56 2 -115 18 -115 32 0 10
125 4 186 -9 29 -5 32 -3 69 61 37 63 68 94 108 108 15 6 17 3 12 -13 -9 -28
14 -26 75 5 28 14 88 38 136 54 94 32 120 47 62 36 -31 -6 -38 -4 -38 8 0 9
10 26 22 37 23 21 163 70 201 70 18 0 45 34 137 177 127 196 192 281 174 226z
m-8750 -34 c-3 -5 -10 -7 -15 -3 -5 3 -7 10 -3 15 3 5 10 7 15 3 5 -3 7 -10 3
-15z m4211 -9 c59 -31 89 -37 100 -20 9 15 69 12 101 -5 16 -8 36 -15 45 -15
36 0 98 -105 99 -166 0 -35 -26 -104 -39 -104 -8 0 -61 -127 -61 -147 0 -7 -9
-17 -20 -23 -17 -9 -22 -7 -30 15 -6 15 -10 41 -10 59 0 19 -7 39 -15 46 -8 7
-15 19 -15 27 0 8 -5 11 -12 7 -8 -5 -9 -2 -5 9 3 10 2 17 -4 17 -5 0 -14 10
-20 23 -5 12 -21 40 -34 62 -21 35 -28 39 -58 37 -46 -4 -66 19 -40 45 17 17
17 21 5 33 -10 9 -13 26 -9 56 4 38 2 43 -19 48 -13 4 -24 11 -24 16 0 14 1
14 65 -20z m1735 9 c0 -5 17 -26 38 -44 39 -36 34 -47 -8 -18 -42 28 -70 56
-64 64 7 13 34 11 34 -2z m-100 -3 c0 -3 -4 -8 -10 -11 -5 -3 -10 -1 -10 4 0
6 5 11 10 11 6 0 10 -2 10 -4z m1440 -11 c0 -8 -4 -15 -9 -15 -13 0 -22 16
-14 24 11 11 23 6 23 -9z m-4826 -11 c25 -25 3 -56 -37 -52 -25 2 -33 8 -35
27 -6 39 42 56 72 25z m4871 6 c3 -5 1 -10 -4 -10 -6 0 -11 5 -11 10 0 6 2 10
4 10 3 0 8 -4 11 -10z m-5910 -51 c17 -18 25 -29 19 -26 -12 7 -29 -86 -19
-103 15 -24 -171 -98 -204 -81 -9 5 -55 7 -103 4 -73 -3 -96 0 -137 18 -27 11
-57 29 -67 40 -15 17 -16 22 -3 46 8 14 28 35 44 45 17 10 24 18 18 18 -27 0
-11 19 30 35 24 10 94 21 167 26 69 5 141 13 160 18 41 9 55 4 95 -40z m4465
19 c0 -13 -23 -5 -28 10 -2 7 2 10 12 6 9 -3 16 -11 16 -16z m-9430 3 c0 -14
-18 -23 -30 -16 -6 4 -8 11 -5 16 8 12 35 12 35 0z m845 -11 c3 -5 1 -10 -4
-10 -6 0 -11 5 -11 10 0 6 2 10 4 10 3 0 8 -4 11 -10z m2840 0 c3 -5 -1 -10
-10 -10 -9 0 -13 5 -10 10 3 6 8 10 10 10 2 0 7 -4 10 -10z m1525 -5 c0 -9 -7
-18 -16 -22 -18 -7 -39 11 -30 26 11 17 46 13 46 -4z m400 -17 c0 -6 -6 -5
-15 2 -8 7 -15 14 -15 16 0 2 7 1 15 -2 8 -4 15 -11 15 -16z m3410 12 c0 -5
-7 -10 -16 -10 -8 0 -12 5 -9 10 3 6 10 10 16 10 5 0 9 -4 9 -10z m-420 -31
c0 -5 -7 -9 -15 -9 -15 0 -20 12 -9 23 8 8 24 -1 24 -14z m-70 1 c0 -5 -7 -10
-15 -10 -8 0 -15 5 -15 10 0 6 7 10 15 10 8 0 15 -4 15 -10z m-5156 -41 c-8
-14 -24 -10 -24 6 0 9 6 12 15 9 8 -4 12 -10 9 -15z m-3749 1 c3 -5 -1 -10
-10 -10 -9 0 -13 5 -10 10 3 6 8 10 10 10 2 0 7 -4 10 -10z m12135 0 c0 -5 -4
-10 -10 -10 -5 0 -10 5 -10 10 0 6 5 10 10 10 6 0 10 -4 10 -10z m-6551 -60
c22 0 42 4 45 9 3 5 16 11 28 14 l23 6 -24 -20 c-13 -10 -30 -19 -38 -19 -8 0
-11 -5 -7 -11 8 -14 81 -4 103 14 12 10 13 9 3 -10 -9 -16 -9 -24 -1 -29 6 -3
9 -15 6 -25 -4 -14 1 -21 19 -25 20 -5 23 -11 18 -28 -4 -11 -12 -25 -18 -29
-6 -5 -3 -6 9 -3 11 3 27 1 35 -4 13 -9 13 -10 0 -10 -8 -1 0 -7 18 -15 17 -8
32 -19 32 -26 0 -7 11 -10 33 -6 17 3 26 3 20 0 -18 -7 -16 -23 2 -23 8 0 15
5 15 10 0 25 20 6 36 -35 11 -30 23 -45 35 -45 27 0 31 -15 9 -35 -10 -9 -22
-30 -25 -46 -4 -16 -11 -32 -17 -35 -7 -5 -9 0 -6 14 4 12 2 22 -3 22 -5 0 -9
-14 -9 -30 0 -20 -6 -33 -17 -38 -10 -4 -18 -13 -18 -21 0 -8 -6 -16 -13 -19
-8 -2 -10 2 -6 15 10 28 -11 4 -36 -41 l-22 -39 26 16 c26 18 81 23 90 9 2 -4
-7 -18 -21 -32 -14 -13 -29 -34 -34 -47 -6 -17 -16 -23 -41 -23 -87 -1 -170
-8 -238 -19 -98 -16 -193 -15 -250 3 -25 8 -56 16 -69 18 -36 5 -49 32 -27 57
17 19 17 21 -8 54 -21 27 -32 33 -51 29 -14 -2 -25 -10 -25 -17 0 -8 -9 -10
-25 -7 -14 2 -23 8 -20 12 8 13 -24 33 -42 26 -17 -6 -17 -5 -1 7 9 7 20 30
24 51 l7 39 -39 -7 -39 -7 43 41 c23 22 42 43 42 45 0 3 -9 5 -20 5 -22 0 -27
15 -7 23 8 4 9 8 1 14 -6 4 -13 16 -17 26 -5 12 -1 17 13 17 11 0 20 7 20 15
0 23 -4 30 -16 29 -6 -1 -11 11 -11 27 0 15 4 26 8 24 3 -3 12 2 19 10 7 8 17
15 23 15 5 0 2 -9 -7 -19 -17 -19 -17 -20 3 -31 12 -6 19 -15 16 -20 -3 -5 -1
-11 5 -15 19 -12 10 -35 -12 -35 -21 -1 -22 -1 -5 -11 14 -8 23 -7 37 6 10 9
24 14 30 10 7 -4 16 -2 20 4 4 7 31 13 62 14 43 2 52 5 42 15 -7 6 -17 12 -23
12 -5 0 -21 5 -35 12 -20 9 -23 14 -15 25 15 18 33 17 25 -2 -4 -10 1 -15 15
-15 11 0 28 -7 36 -16 11 -10 26 -14 45 -10 21 4 28 2 28 -10 0 -14 2 -14 16
0 8 9 20 16 25 16 5 0 9 5 9 11 0 6 -6 9 -14 6 -12 -5 -82 10 -95 20 -3 2 4
10 15 18 19 14 19 14 0 15 -23 0 -12 15 12 15 9 0 16 7 15 15 -1 9 30 37 75
67 71 48 78 50 84 32 6 -14 17 -19 47 -19z m1109 12 c2 -16 -3 -25 -20 -31
-29 -11 -58 3 -58 28 0 26 10 32 45 29 22 -2 31 -9 33 -26z m2087 3 c0 -12 -8
-21 -20 -23 -28 -3 -49 13 -42 33 10 25 62 16 62 -10z m4545 -15 c0 -5 -4 -10
-10 -10 -5 0 -10 5 -10 10 0 6 5 10 10 10 6 0 10 -4 10 -10z m-13540 -15 c0
-8 -7 -15 -15 -15 -8 0 -15 7 -15 15 0 8 7 15 15 15 8 0 15 -7 15 -15z m1052
0 c0 -5 -5 -11 -11 -13 -6 -2 -11 4 -11 13 0 9 5 15 11 13 6 -2 11 -8 11 -13z
m3098 -25 c0 -5 -7 -10 -15 -10 -8 0 -15 5 -15 10 0 6 7 10 15 10 8 0 15 -4
15 -10z m495 -1 c10 -14 1 -21 -19 -13 -9 3 -13 10 -10 15 7 12 21 11 29 -2z
m5935 1 c0 -5 -7 -10 -15 -10 -8 0 -15 5 -15 10 0 6 7 10 15 10 8 0 15 -4 15
-10z m-3652 -17 c-4 -20 -35 -30 -50 -15 -15 15 0 32 28 32 19 0 25 -5 22 -17z
m-4848 -8 c10 -12 9 -16 -4 -21 -9 -3 -23 -3 -32 0 -13 5 -14 9 -4 21 7 8 16
15 20 15 4 0 13 -7 20 -15z m2190 5 c0 -5 -7 -10 -15 -10 -8 0 -15 5 -15 10 0
6 7 10 15 10 8 0 15 -4 15 -10z m2524 -10 c37 -14 60 -53 46 -79 -29 -55 -112
-62 -150 -14 -53 68 13 128 104 93z m2356 -10 c0 -5 -4 -10 -10 -10 -5 0 -10
5 -10 10 0 6 5 10 10 10 6 0 10 -4 10 -10z m-1705 -45 c0 -22 -31 -33 -47 -17
-17 17 -1 44 24 40 15 -2 23 -10 23 -23z m5960 15 c3 -5 1 -10 -4 -10 -6 0
-11 5 -11 10 0 6 2 10 4 10 3 0 8 -4 11 -10z m-6245 -15 c0 -8 -4 -15 -9 -15
-13 0 -22 16 -14 24 11 11 23 6 23 -9z m6570 5 c0 -5 -2 -10 -4 -10 -3 0 -8 5
-11 10 -3 6 -1 10 4 10 6 0 11 -4 11 -10z m-7101 -19 c15 -27 -8 -54 -43 -49
-37 4 -55 30 -37 52 19 22 68 21 80 -3z m3651 9 c0 -5 -4 -10 -9 -10 -6 0 -13
5 -16 10 -3 6 1 10 9 10 9 0 16 -4 16 -10z m220 0 c0 -5 -7 -10 -15 -10 -8 0
-15 5 -15 10 0 6 7 10 15 10 8 0 15 -4 15 -10z m2090 0 c0 -5 -4 -10 -10 -10
-5 0 -10 5 -10 10 0 6 5 10 10 10 6 0 10 -4 10 -10z m-11298 -30 c-2 -7 3 -17
10 -21 7 -5 13 -15 13 -24 0 -18 162 -78 171 -63 3 5 -4 23 -15 42 -33 53 -29
60 31 53 51 -6 72 -21 63 -44 -2 -7 7 -24 20 -37 31 -31 33 -61 3 -63 -26 -2
-44 -27 -23 -31 18 -4 20 -28 4 -38 -7 -4 -25 -8 -41 -10 -15 -2 -42 -11 -59
-20 -75 -38 -262 -26 -318 22 -16 13 -33 24 -39 24 -5 0 -12 7 -16 15 -3 9
-18 15 -36 15 -27 0 -31 3 -28 23 2 17 11 23 38 27 33 5 35 7 40 50 4 40 9 47
42 63 37 18 115 37 133 32 6 -1 9 -8 7 -15z m7728 10 c0 -5 -4 -10 -9 -10 -6
0 -13 5 -16 10 -3 6 1 10 9 10 9 0 16 -4 16 -10z m-8563 -6 c-3 -3 -12 -4 -19
-1 -8 3 -5 6 6 6 11 1 17 -2 13 -5z m8788 -18 c22 -16 14 -46 -14 -46 -48 0
-68 29 -33 49 22 14 25 13 47 -3z m4365 4 c0 -5 -7 -10 -15 -10 -8 0 -15 5
-15 10 0 6 7 10 15 10 8 0 15 -4 15 -10z m-7100 -20 c32 -32 2 -79 -52 -80
-27 0 -68 30 -68 50 0 21 41 50 70 50 17 0 39 -9 50 -20z m5354 -1 c-3 -5 -10
-7 -15 -3 -5 3 -7 10 -3 15 3 5 10 7 15 3 5 -3 7 -10 3 -15z m-5779 1 c3 -5
-1 -10 -9 -10 -8 0 -18 5 -21 10 -3 6 1 10 9 10 8 0 18 -4 21 -10z m-2294 -20
c26 -14 24 -36 -5 -55 -23 -16 -54 -11 -68 9 -11 16 -10 23 8 40 18 19 38 20
65 6z m1626 4 c-3 -3 -12 -4 -19 -1 -8 3 -5 6 6 6 11 1 17 -2 13 -5z m4201 -3
c22 -14 10 -46 -17 -46 -31 0 -52 31 -31 45 19 12 31 12 48 1z m-938 -41 c0
-5 -7 -10 -15 -10 -8 0 -15 5 -15 10 0 6 7 10 15 10 8 0 15 -4 15 -10z m1065
-10 c3 -5 -1 -10 -9 -10 -9 0 -16 5 -16 10 0 6 4 10 9 10 6 0 13 -4 16 -10z
m-9552 -15 c1 -5 -6 -11 -15 -13 -11 -2 -18 3 -18 13 0 17 30 18 33 0z m11873
-6 c3 -6 2 -15 -2 -19 -12 -12 -38 5 -30 19 9 14 23 14 32 0z m-5869 -5 c-3
-3 -12 -4 -19 -1 -8 3 -5 6 6 6 11 1 17 -2 13 -5z m1117 -7 c39 -28 -3 -74
-51 -56 -41 15 -22 63 28 68 3 1 13 -5 23 -12z m-610 -13 c34 -34 6 -74 -53
-74 -40 0 -61 14 -61 41 0 28 28 49 65 49 18 0 41 -7 49 -16z m250 6 c28 -10
35 -41 14 -58 -42 -33 -118 -18 -118 23 0 36 54 54 104 35z m3776 0 c0 -5 -4
-10 -10 -10 -5 0 -10 5 -10 10 0 6 5 10 10 10 6 0 10 -4 10 -10z m-8636 -41
c-3 -5 -10 -7 -15 -3 -5 3 -7 10 -3 15 3 5 10 7 15 3 5 -3 7 -10 3 -15z m2636
2 c23 -43 -58 -70 -84 -28 -9 15 -7 21 8 33 28 20 63 18 76 -5z m5280 -11 c0
-5 -4 -10 -10 -10 -5 0 -10 5 -10 10 0 6 5 10 10 10 6 0 10 -4 10 -10z m-8391
-62 c-11 -20 -36 -34 -46 -25 -3 3 2 13 11 22 9 9 16 23 16 32 0 12 3 13 15 3
11 -9 12 -17 4 -32z m671 38 c0 -3 -4 -8 -10 -11 -5 -3 -10 -1 -10 4 0 6 5 11
10 11 6 0 10 -2 10 -4z m1790 -6 c0 -5 -4 -10 -10 -10 -5 0 -10 5 -10 10 0 6
5 10 10 10 6 0 10 -4 10 -10z m4340 -10 c0 -5 -4 -10 -10 -10 -5 0 -10 5 -10
10 0 6 5 10 10 10 6 0 10 -4 10 -10z m-7323 -55 c0 -8 -4 -15 -9 -15 -4 0 -8
6 -8 14 0 7 -7 19 -15 26 -8 7 -15 17 -15 23 0 6 11 1 23 -11 13 -12 24 -29
24 -37z m-1437 30 c0 -8 -4 -15 -9 -15 -13 0 -22 16 -14 24 11 11 23 6 23 -9z
m1298 -14 c3 -8 -1 -12 -9 -9 -7 2 -15 10 -17 17 -3 8 1 12 9 9 7 -2 15 -10
17 -17z m8447 5 c25 -18 13 -46 -20 -46 -30 0 -43 24 -25 45 15 18 21 19 45 1z
m-5515 -6 c0 -5 -7 -10 -16 -10 -8 0 -12 5 -9 10 3 6 10 10 16 10 5 0 9 -4 9
-10z m3525 -37 c48 -25 95 -65 95 -82 0 -5 7 -14 15 -21 8 -7 15 -19 15 -27 0
-7 -7 -16 -15 -18 -51 -16 -49 -14 -31 -34 23 -26 8 -55 -42 -80 -63 -31 -90
-34 -104 -11 -7 11 -23 20 -35 20 -13 0 -23 5 -23 10 0 6 5 10 12 10 25 0 -4
14 -44 20 -24 4 -59 11 -78 15 l-35 8 33 -35 c17 -19 32 -41 32 -50 0 -20 21
-28 70 -28 21 0 42 -4 45 -10 4 -6 -24 -10 -77 -10 -78 0 -87 2 -126 31 -23
17 -42 34 -42 39 0 4 -16 24 -35 43 -50 50 -52 127 -4 127 11 0 32 6 47 14 84
43 247 39 342 -9 55 -28 60 -29 60 -15 0 20 -90 67 -152 81 -72 15 -168 17
-215 5 -38 -10 -47 8 -10 20 91 30 231 24 302 -13z m1603 21 c31 -22 29 -62
-4 -74 -55 -21 -113 44 -68 77 24 17 45 16 72 -3z m-1431 -42 c24 -18 30 -32
12 -32 -11 0 -139 69 -139 75 0 8 105 -28 127 -43z m-6443 29 c4 -5 -1 -8 -9
-7 -21 3 -31 16 -12 16 9 0 18 -4 21 -9z m8593 -7 c5 -15 -20 -24 -37 -14 -7
4 -9 13 -5 19 8 14 37 11 42 -5z m-5787 -4 c0 -5 -7 -10 -15 -10 -8 0 -15 5
-15 10 0 6 7 10 15 10 8 0 15 -4 15 -10z m-210 -16 c0 -17 -22 -14 -28 4 -2 7
3 12 12 12 9 0 16 -7 16 -16z m6040 -4 c0 -5 -4 -10 -10 -10 -5 0 -10 5 -10
10 0 6 5 10 10 10 6 0 10 -4 10 -10z m-9416 -10 c57 -21 5 -94 -52 -74 -36 13
-37 53 -2 71 30 15 24 15 54 3z m7961 -20 c3 -5 1 -10 -4 -10 -6 0 -11 5 -11
10 0 6 2 10 4 10 3 0 8 -4 11 -10z m-1322 -7 c2 -5 -1 -22 -7 -38 -10 -28 -12
-29 -27 -15 -11 12 -13 23 -8 38 8 21 33 30 42 15z m4417 -13 c0 -5 -4 -10
-10 -10 -5 0 -10 5 -10 10 0 6 5 10 10 10 6 0 10 -4 10 -10z m-6063 -6 c-3 -3
-12 -4 -19 -1 -8 3 -5 6 6 6 11 1 17 -2 13 -5z m3417 -16 c28 -40 -19 -82 -66
-57 -40 21 -46 39 -22 63 23 23 70 20 88 -6z m156 12 c0 -5 -7 -10 -15 -10 -8
0 -15 5 -15 10 0 6 7 10 15 10 8 0 15 -4 15 -10z m-4310 -10 c0 -5 -4 -10 -10
-10 -5 0 -10 5 -10 10 0 6 5 10 10 10 6 0 10 -4 10 -10z m8550 0 c0 -5 -4 -10
-10 -10 -5 0 -10 5 -10 10 0 6 5 10 10 10 6 0 10 -4 10 -10z m-8860 -10 c0 -5
-4 -10 -10 -10 -5 0 -10 5 -10 10 0 6 5 10 10 10 6 0 10 -4 10 -10z m-545 -10
c-3 -5 -10 -10 -16 -10 -5 0 -9 5 -9 10 0 6 7 10 16 10 8 0 12 -4 9 -10z
m4565 0 c0 -5 -4 -10 -10 -10 -5 0 -10 5 -10 10 0 6 5 10 10 10 6 0 10 -4 10
-10z m-4230 -15 c0 -8 -7 -15 -15 -15 -8 0 -15 7 -15 15 0 8 7 15 15 15 8 0
15 -7 15 -15z m5656 -16 l28 -10 -43 -24 c-33 -19 -47 -22 -62 -15 -25 14 -24
24 4 43 27 19 37 20 73 6z m1074 7 c0 -3 -4 -8 -10 -11 -5 -3 -10 -1 -10 4 0
6 5 11 10 11 6 0 10 -2 10 -4z m440 -26 c0 -5 -4 -10 -10 -10 -5 0 -10 5 -10
10 0 6 5 10 10 10 6 0 10 -4 10 -10z m-8530 -10 c0 -5 -4 -10 -9 -10 -6 0 -13
5 -16 10 -3 6 1 10 9 10 9 0 16 -4 16 -10z m1430 1 c0 -6 -4 -13 -10 -16 -5
-3 -10 1 -10 9 0 9 5 16 10 16 6 0 10 -4 10 -9z m3640 1 c0 -13 -12 -22 -22
-16 -10 6 -1 24 13 24 5 0 9 -4 9 -8z m-3110 -23 c0 -5 -7 -9 -15 -9 -15 0
-20 12 -9 23 8 8 24 -1 24 -14z m3268 0 c-2 -6 -8 -10 -13 -10 -5 0 -11 4 -13
10 -2 6 4 11 13 11 9 0 15 -5 13 -11z m-4118 -9 c0 -5 -4 -10 -10 -10 -5 0
-10 5 -10 10 0 6 5 10 10 10 6 0 10 -4 10 -10z m6360 0 c0 -5 -4 -10 -10 -10
-5 0 -10 5 -10 10 0 6 5 10 10 10 6 0 10 -4 10 -10z m-9532 -32 c-6 -18 -28
-21 -28 -4 0 9 7 16 16 16 9 0 14 -5 12 -12z m12512 2 c0 -5 -4 -10 -10 -10
-5 0 -10 5 -10 10 0 6 5 10 10 10 6 0 10 -4 10 -10z m-10765 -9 c3 -5 1 -12
-5 -16 -5 -3 -10 1 -10 9 0 18 6 21 15 7z m3621 -16 c19 -30 14 -48 -20 -70
-30 -20 -72 -10 -93 21 -12 18 -11 24 8 47 28 37 82 38 105 2z m354 21 c0 -11
-19 -15 -25 -6 -3 5 1 10 9 10 9 0 16 -2 16 -4z m1248 -15 c8 -4 12 -19 10
-32 -3 -21 -8 -24 -43 -24 -35 0 -40 3 -43 24 -4 26 12 41 43 41 11 0 26 -4
33 -9z m-5693 -11 c-3 -5 -10 -10 -16 -10 -5 0 -9 5 -9 10 0 6 7 10 16 10 8 0
12 -4 9 -10z m1545 0 c0 -5 -4 -10 -10 -10 -5 0 -10 5 -10 10 0 6 5 10 10 10
6 0 10 -4 10 -10z m1424 -13 c25 -18 16 -50 -17 -61 -51 -18 -83 18 -48 53 24
24 40 26 65 8z m8886 3 c0 -5 -7 -10 -15 -10 -8 0 -15 5 -15 10 0 6 7 10 15
10 8 0 15 -4 15 -10z m-5380 -10 c0 -5 -4 -10 -10 -10 -5 0 -10 5 -10 10 0 6
5 10 10 10 6 0 10 -4 10 -10z m-358 -25 c0 -5 -5 -11 -11 -13 -6 -2 -11 4 -11
13 0 9 5 15 11 13 6 -2 11 -8 11 -13z m-6504 -18 c18 -14 15 -48 -5 -63 -28
-21 -80 -17 -97 7 -18 26 -11 46 22 63 26 14 57 11 80 -7z m2393 13 c16 -9 17
-14 8 -32 -11 -20 -10 -20 27 3 l39 24 -18 -29 c-10 -15 -16 -30 -13 -33 8 -8
-26 -32 -45 -33 -10 0 -19 -11 -22 -26 -4 -20 -1 -24 12 -18 26 12 124 16 150
6 20 -7 12 -9 -35 -10 -33 0 -77 -8 -99 -18 -27 -12 -59 -17 -98 -15 -37 2
-63 -2 -74 -10 -13 -12 -18 -10 -32 7 l-16 22 -37 -22 c-20 -11 -40 -18 -43
-14 -12 12 6 49 28 58 21 8 21 8 -5 20 -84 39 44 129 185 130 38 0 77 -5 88
-10z m-3276 -50 c3 -5 -1 -10 -9 -10 -9 0 -16 5 -16 10 0 6 4 10 9 10 6 0 13
-4 16 -10z m9015 -30 c0 -5 -4 -10 -10 -10 -5 0 -10 5 -10 10 0 6 5 10 10 10
6 0 10 -4 10 -10z m-9570 -30 c0 -5 -4 -10 -10 -10 -5 0 -10 5 -10 10 0 6 5
10 10 10 6 0 10 -4 10 -10z m974 -6 c25 -25 17 -47 -24 -62 -36 -14 -70 2 -70
32 0 42 63 62 94 30z m4336 -5 c0 -5 -7 -9 -15 -9 -15 0 -20 12 -9 23 8 8 24
-1 24 -14z m-3770 -4 c0 -8 -6 -15 -14 -15 -17 0 -28 14 -19 24 12 12 33 6 33
-9z m2958 -10 c10 -9 -12 -45 -29 -50 -22 -7 -49 10 -49 31 0 26 55 39 78 19z
m-2808 -15 c0 -5 -7 -10 -15 -10 -8 0 -15 5 -15 10 0 6 7 10 15 10 8 0 15 -4
15 -10z m650 0 c0 -5 -7 -10 -15 -10 -8 0 -15 5 -15 10 0 6 7 10 15 10 8 0 15
-4 15 -10z m5098 -7 c-2 -10 -12 -18 -23 -18 -11 0 -21 8 -23 18 -3 13 3 17
23 17 20 0 26 -4 23 -17z m182 -8 c0 -8 -4 -15 -10 -15 -5 0 -10 7 -10 15 0 8
5 15 10 15 6 0 10 -7 10 -15z m2620 5 c0 -5 -5 -10 -11 -10 -5 0 -7 5 -4 10 3
6 8 10 11 10 2 0 4 -4 4 -10z m-6256 -31 c58 -45 7 -129 -54 -89 -13 9 -12 13
8 29 27 23 28 38 3 46 -31 9 -89 -20 -96 -48 -10 -37 20 -86 63 -104 46 -19
127 -11 176 18 31 18 36 19 36 5 0 -18 -35 -43 -80 -56 -46 -13 -122 4 -179
42 -46 30 -49 34 -46 69 5 51 18 73 57 92 45 22 80 21 112 -4z m2946 -10 c0
-27 -28 -35 -48 -15 -16 16 -16 18 1 31 24 17 47 9 47 -16z m5537 4 c-6 -16
-15 -31 -20 -34 -4 -3 -7 -12 -5 -20 2 -8 -3 -13 -9 -11 -7 1 -13 -5 -13 -13
0 -8 -5 -15 -11 -15 -6 0 -29 -13 -52 -28 -40 -27 -89 -51 -74 -36 4 4 1 14
-6 22 -9 13 -9 14 1 8 8 -5 15 1 21 16 10 25 45 59 112 107 55 40 73 41 56 4z
m-11293 -6 c9 -15 7 -22 -12 -37 -41 -33 -94 7 -61 46 16 19 59 14 73 -9z
m6816 13 c0 -5 -7 -10 -15 -10 -8 0 -15 5 -15 10 0 6 7 10 15 10 8 0 15 -4 15
-10z m1335 -10 c0 -8 -10 -16 -22 -18 -18 -3 -23 2 -23 18 0 16 5 21 23 18 12
-2 22 -10 22 -18z m-3276 -14 c9 -11 10 -20 1 -36 -15 -27 -73 -25 -78 3 -8
40 51 64 77 33z m2194 -20 c7 -19 -18 -40 -38 -32 -8 3 -15 15 -15 26 0 14 7
20 24 20 13 0 26 -6 29 -14z m367 4 c0 -5 -4 -10 -10 -10 -5 0 -10 5 -10 10 0
6 5 10 10 10 6 0 10 -4 10 -10z m-3990 -10 c0 -5 -4 -10 -10 -10 -5 0 -10 5
-10 10 0 6 5 10 10 10 6 0 10 -4 10 -10z m480 -20 c0 -5 -4 -10 -10 -10 -5 0
-10 5 -10 10 0 6 5 10 10 10 6 0 10 -4 10 -10z m405 -20 c3 -5 1 -10 -4 -10
-6 0 -11 5 -11 10 0 6 2 10 4 10 3 0 8 -4 11 -10z m251 -6 c39 -9 54 -22 54
-49 0 -34 -20 -44 -94 -50 -55 -4 -68 -2 -73 11 -3 9 -1 25 5 35 7 10 12 25
12 32 0 22 24 39 46 33 12 -3 34 -8 50 -12z m6479 -5 c0 -7 -8 -15 -17 -17
-18 -3 -25 18 -11 32 10 10 28 1 28 -15z m-5495 2 c0 -6 -4 -13 -10 -16 -5 -3
-10 1 -10 9 0 9 5 16 10 16 6 0 10 -4 10 -9z m895 0 c7 -12 -12 -24 -25 -16
-11 7 -4 25 10 25 5 0 11 -4 15 -9z m-248 -61 c35 -16 94 -49 132 -74 103 -66
150 -89 136 -66 -3 6 -2 10 4 10 12 0 64 -22 71 -30 7 -8 76 -40 85 -40 5 0
35 17 69 38 86 54 153 76 194 61 24 -8 45 -8 80 0 85 20 282 -9 286 -43 0 -5
-15 -15 -34 -21 -55 -18 -45 -39 23 -47 120 -15 292 -121 319 -196 l13 -35
115 7 c63 3 152 9 198 12 51 4 82 3 82 -3 0 -12 -224 -43 -313 -43 -77 0 -90
-11 -85 -72 2 -36 0 -43 -17 -46 -11 -2 -29 -12 -40 -22 -29 -25 -160 -95
-225 -119 -32 -12 -114 -28 -195 -37 -77 -9 -158 -24 -180 -33 -80 -35 -105
-34 -214 5 -92 32 -104 34 -119 21 -9 -9 -37 -23 -62 -33 -25 -10 -66 -33 -92
-52 -50 -35 -147 -68 -173 -59 -54 21 35 148 169 237 l78 53 -5 44 c-2 24 -6
45 -8 47 -2 2 -82 6 -177 9 -147 5 -186 10 -258 32 -46 14 -84 29 -84 34 0 5
26 12 58 15 60 7 112 24 112 35 0 4 12 21 28 39 63 71 65 76 66 123 1 26 5 51
9 55 12 13 8 34 -13 56 -11 12 -20 30 -20 39 0 10 -3 19 -7 21 -5 2 -33 30
-63 62 -62 65 -55 67 57 16z m3698 30 c3 -5 1 -10 -4 -10 -6 0 -11 5 -11 10 0
6 2 10 4 10 3 0 8 -4 11 -10z m-4910 -50 c0 -8 -8 -16 -17 -18 -13 -2 -18 3
-18 18 0 15 5 20 18 18 9 -2 17 -10 17 -18z m2265 10 c0 -5 -4 -10 -10 -10 -5
0 -10 5 -10 10 0 6 5 10 10 10 6 0 10 -4 10 -10z m-3340 -20 c0 -5 -7 -10 -15
-10 -8 0 -15 5 -15 10 0 6 7 10 15 10 8 0 15 -4 15 -10z m6110 -5 c0 -8 -4
-15 -10 -15 -5 0 -10 7 -10 15 0 8 5 15 10 15 6 0 10 -7 10 -15z m-8069 -21
c17 -20 2 -45 -34 -58 -43 -16 -77 30 -45 62 17 17 63 15 79 -4z m10419 6 c0
-5 -4 -10 -10 -10 -5 0 -10 5 -10 10 0 6 5 10 10 10 6 0 10 -4 10 -10z m-3616
-31 c-3 -5 -10 -7 -15 -3 -5 3 -7 10 -3 15 3 5 10 7 15 3 5 -3 7 -10 3 -15z
m-946 -11 c16 -16 15 -23 -4 -42 -33 -33 -94 -4 -74 35 12 22 59 26 78 7z
m-1660 -40 c-4 -28 -42 -37 -52 -13 -9 24 1 35 30 35 21 0 25 -4 22 -22z
m-720 -41 c22 -17 14 -56 -13 -69 -41 -18 -80 0 -80 37 0 46 51 64 93 32z
m1202 -2 c0 -8 -4 -15 -10 -15 -5 0 -10 7 -10 15 0 8 5 15 10 15 6 0 10 -7 10
-15z m-6481 -10 c7 -8 -13 -26 -47 -44 -54 -27 -75 -55 -74 -96 1 -19 -3 -37
-9 -41 -6 -3 -14 -17 -19 -30 -8 -20 -5 -29 23 -55 32 -31 33 -31 112 -26 85
6 135 -10 135 -43 -1 -17 -72 -65 -113 -75 -31 -8 -62 -47 -54 -69 20 -52
-123 -43 -220 14 -40 24 -42 27 -37 62 5 30 3 39 -15 50 -25 15 -27 40 -5 73
22 33 11 138 -13 133 -15 -3 -46 -53 -58 -92 -4 -12 -9 -16 -15 -10 -13 13 6
79 35 122 23 33 128 103 195 128 24 10 57 12 105 8 39 -4 72 -8 74 -9z m8171
-10 c0 -8 -4 -15 -9 -15 -13 0 -22 16 -14 24 11 11 23 6 23 -9z m-15 -59 c8
-23 6 -30 -10 -42 -22 -16 -64 -11 -77 9 -15 22 -3 51 22 58 40 11 54 6 65
-25z m-6705 8 c0 -9 -7 -14 -17 -12 -25 5 -28 28 -4 28 12 0 21 -6 21 -16z
m9324 -80 c20 -19 20 -28 1 -44 -31 -26 -82 13 -56 44 17 20 35 20 55 0z
m-2404 -34 c0 -21 -24 -28 -35 -10 -8 14 3 30 21 30 8 0 14 -9 14 -20z m2988
8 c-6 -18 -28 -21 -28 -4 0 9 7 16 16 16 9 0 14 -5 12 -12z m-7153 -68 c0 -56
-4 -70 -30 -105 -108 -146 -156 -180 -188 -134 -18 25 -33 8 -28 -33 1 -14 -2
-29 -8 -33 -6 -3 -11 -23 -11 -45 0 -49 -24 -61 -44 -22 -28 55 -38 149 -26
241 18 137 33 169 87 185 16 5 31 -2 58 -25 34 -30 37 -31 49 -14 16 22 36 12
36 -19 0 -24 25 -53 33 -39 2 4 7 20 11 35 14 58 26 79 44 76 14 -3 17 -14 17
-68z m6665 25 c6 -8 9 -23 5 -35 -5 -16 -13 -20 -37 -18 -17 2 -36 10 -41 20
-23 36 45 67 73 33z m-6372 -7 c-6 -18 -28 -21 -28 -4 0 9 7 16 16 16 9 0 14
-5 12 -12z m6612 -32 c0 -3 -4 -8 -10 -11 -5 -3 -10 -1 -10 4 0 6 5 11 10 11
6 0 10 -2 10 -4z m-10726 -32 c20 -19 20 -28 2 -44 -36 -29 -85 10 -56 45 16
19 35 19 54 -1z m4956 -4 c0 -21 -24 -28 -35 -10 -8 14 3 30 21 30 8 0 14 -9
14 -20z m-650 -15 c0 -8 -4 -15 -9 -15 -13 0 -22 16 -14 24 11 11 23 6 23 -9z
m4598 -99 c5 -23 -42 -43 -63 -26 -36 30 0 82 40 56 11 -7 21 -21 23 -30z
m-3198 3 c0 -12 -7 -19 -20 -19 -22 0 -29 35 -7 43 18 6 27 -2 27 -24z m-5921
-11 l39 -12 -19 -39 c-22 -42 -58 -61 -101 -52 -40 9 -56 28 -50 64 6 46 59
61 131 39z m631 2 c0 -5 -2 -10 -4 -10 -3 0 -8 5 -11 10 -3 6 -1 10 4 10 6 0
11 -4 11 -10z m6740 -16 c0 -2 -11 -4 -25 -4 -14 0 -25 4 -25 9 0 4 11 6 25 3
14 -2 25 -6 25 -8z m-3160 -9 c0 -8 -4 -15 -10 -15 -5 0 -10 7 -10 15 0 8 5
15 10 15 6 0 10 -7 10 -15z m-1776 -11 c29 -28 12 -57 -30 -52 -35 4 -45 35
-18 55 23 17 29 16 48 -3z m7283 5 c16 -16 5 -39 -18 -39 -12 0 -19 7 -19 18
0 31 17 41 37 21z m-230 -31 c-3 -8 -6 -5 -6 6 -1 11 2 17 5 13 3 -3 4 -12 1
-19z m-4280 -18 c29 -13 44 -27 49 -44 8 -35 -3 -76 -21 -76 -15 0 -19 16 -16
53 3 25 -22 21 -53 -8 -31 -29 -69 -26 -98 7 -26 29 -22 46 15 68 40 25 70 25
124 0z m4723 -60 c0 -24 -26 -38 -42 -22 -16 16 -2 42 22 42 13 0 20 -7 20
-20z m-10646 4 c26 -10 38 -41 26 -64 -23 -43 -98 -46 -114 -5 -15 40 44 86
88 69z m11911 -39 c0 -25 -4 -31 -26 -33 -32 -4 -53 20 -44 48 5 17 13 20 38
18 28 -3 32 -7 32 -33z m-9515 -5 c11 -11 20 -25 20 -30 0 -18 -48 -60 -67
-60 -30 0 -63 29 -63 55 0 49 73 72 110 35z m-941 -37 c-15 -18 -34 -1 -25 22
5 14 9 15 21 5 12 -10 13 -16 4 -27z m4755 -9 c9 -8 16 -17 16 -19 0 -39 -64
-50 -76 -13 -4 15 -1 25 12 35 23 17 29 16 48 -3z m-2591 -20 c11 -11 -5 -34
-24 -34 -18 0 -26 20 -12 33 8 9 28 9 36 1z m927 -29 c0 -9 -6 -12 -15 -9 -8
4 -15 10 -15 15 0 5 7 9 15 9 8 0 15 -7 15 -15z m-4525 -5 c3 -5 2 -10 -4 -10
-5 0 -13 5 -16 10 -3 6 -2 10 4 10 5 0 13 -4 16 -10z m10460 -1 c94 -17 197
-81 222 -137 13 -31 20 -20 25 38 2 27 8 36 25 38 17 3 24 -3 29 -22 3 -13 14
-32 25 -42 30 -27 27 -130 -6 -174 -14 -19 -25 -39 -25 -45 0 -12 -29 -29 -66
-40 -14 -3 -25 -19 -33 -45 -6 -21 -17 -42 -23 -47 -7 -4 -44 -6 -83 -4 -59 2
-80 7 -135 38 -36 20 -83 54 -105 75 -22 21 -45 38 -51 38 -43 0 -11 170 44
233 19 21 4 22 -26 1 -25 -17 -52 -13 -52 9 0 23 55 68 101 82 55 17 62 17
134 4z m-731 -81 c15 -25 -14 -53 -47 -44 -27 6 -40 28 -30 52 8 20 62 15 77
-8z m-3100 -14 c9 -8 16 -19 16 -24 0 -13 -30 -40 -44 -40 -34 0 -48 52 -18
69 23 14 28 14 46 -5z m-2319 -69 c0 -24 -5 -31 -23 -33 -23 -3 -52 13 -52 29
0 17 33 40 54 37 16 -2 21 -10 21 -33z m2825 21 c21 -26 8 -61 -23 -64 -52 -6
-69 33 -29 66 21 16 37 15 52 -2z m-5890 -21 c25 -30 -11 -72 -51 -60 -43 14
-30 75 16 75 12 0 28 -7 35 -15z m8785 -30 c0 -25 -4 -30 -25 -30 -19 0 -26 6
-28 24 -4 25 13 43 38 38 9 -1 15 -13 15 -32z m-8054 -75 c26 -14 24 -55 -3
-74 -29 -20 -47 -20 -70 1 -50 45 10 106 73 73z m4063 -72 c16 -26 -16 -57
-38 -38 -17 13 -21 42 -9 54 11 11 35 3 47 -16z m-3374 -38 c0 -5 -9 -10 -20
-10 -11 0 -20 5 -20 10 0 6 9 10 20 10 11 0 20 -4 20 -10z m-280 -20 c11 -11
20 -25 20 -31 0 -5 4 -8 10 -4 5 3 6 13 3 23 -3 9 -3 14 1 10 4 -3 29 0 54 8
54 16 102 18 102 5 0 -18 -33 -42 -54 -40 -41 3 -47 -1 -44 -23 2 -17 9 -22
23 -20 43 7 96 2 119 -10 13 -7 37 -21 54 -31 38 -21 143 -28 149 -9 7 18 38
15 89 -8 36 -17 56 -19 107 -14 54 5 65 3 90 -16 41 -33 60 -75 45 -100 -19
-30 -62 -44 -115 -36 -47 6 -72 27 -73 59 0 9 -3 17 -7 17 -5 0 -18 3 -31 6
-19 6 -23 3 -20 -12 2 -11 15 -27 30 -36 15 -9 34 -28 42 -41 20 -29 33 -117
18 -117 -13 0 -57 -91 -67 -138 -15 -71 -164 -182 -298 -223 -69 -21 -128 -24
-143 -9 -6 6 -44 14 -85 17 -66 5 -126 24 -169 53 -8 5 -40 21 -72 35 -110 49
-221 151 -214 198 1 8 21 36 44 61 46 49 47 52 32 90 -8 21 -6 27 11 37 17 9
20 17 16 44 -6 35 14 75 37 75 6 0 30 18 51 40 21 22 43 40 47 40 16 0 98 56
92 63 -12 12 38 57 63 57 13 0 32 -9 43 -20z m8480 11 c0 -13 -40 -61 -51 -61
-15 0 -10 37 7 54 17 17 44 22 44 7z m-4022 -53 c-5 -34 -38 -37 -38 -4 0 20
5 26 21 26 15 0 20 -5 17 -22z m-5413 -69 c10 -31 -27 -68 -49 -49 -16 13 -22
51 -9 63 15 15 52 6 58 -14z m-189 -45 c63 -14 122 -23 130 -20 8 3 14 1 14
-4 0 -6 10 -10 22 -10 31 0 108 -30 108 -42 0 -16 -85 -1 -365 64 -49 11 -94
24 -99 29 -19 17 75 9 190 -17z m6628 -50 c24 -23 5 -47 -48 -63 -42 -12 -49
-12 -66 4 -23 20 -26 45 -8 63 18 18 103 15 122 -4z m-6104 -73 c0 -19 -22
-23 -38 -7 -15 15 -14 16 11 16 15 0 27 -4 27 -9z m3954 -57 c20 -8 21 -48 1
-64 -21 -17 -55 -3 -55 24 0 21 17 46 31 46 4 0 14 -3 23 -6z m-1719 -24
c-116 -23 -191 -31 -357 -40 -180 -10 -244 -7 -232 11 8 14 111 11 117 -3 4
-9 8 -9 14 -3 4 6 26 11 48 12 22 1 121 8 220 16 208 17 246 18 190 7z m3005
-211 c0 -10 -7 -19 -15 -19 -13 0 -14 12 -6 48 3 12 21 -13 21 -29z m-3100
-62 c83 -28 178 -76 194 -99 17 -25 21 -103 7 -140 -22 -58 -98 -122 -212
-181 l-114 -58 -120 0 c-134 0 -208 16 -242 53 -38 42 -37 61 7 119 22 29 40
57 40 61 0 12 -29 10 -93 -7 -79 -20 -94 -37 -103 -113 -6 -59 -15 -75 -29
-52 -3 6 -15 10 -26 10 -17 0 -19 7 -19 59 0 46 5 63 23 83 51 57 70 90 56 99
-8 5 -20 3 -29 -5 -8 -8 -31 -22 -50 -33 -63 -34 -110 -68 -110 -80 0 -6 -9
-15 -21 -18 -11 -4 -25 -20 -31 -36 -12 -34 -23 -37 -38 -9 -6 11 -7 20 -2 20
8 0 38 69 34 81 -4 16 97 95 151 118 26 11 47 24 47 29 0 4 24 22 53 40 50 30
124 49 302 76 61 9 280 -3 325 -17z m3602 -184 c35 -32 13 -122 -27 -107 -8 4
-15 9 -15 13 0 4 -18 17 -40 30 -43 24 -46 31 -28 61 16 25 83 27 110 3z
m-103 -104 c22 -23 41 -50 41 -61 0 -11 -14 -39 -31 -64 -17 -25 -37 -64 -45
-89 -13 -37 -23 -47 -67 -68 -29 -13 -77 -33 -107 -43 -30 -10 -68 -27 -83
-37 -41 -28 -113 -19 -144 18 -13 14 -23 33 -23 41 0 9 -7 23 -16 31 -20 21
-12 54 29 107 61 81 162 147 307 199 8 3 34 6 56 6 36 1 47 -5 83 -40z m-1895
-2 c12 -9 17 -23 14 -42 -2 -25 -8 -31 -33 -33 -19 -3 -33 2 -42 14 -17 24
-17 30 7 54 24 24 30 24 54 7z m-2527 -79 c-3 -8 -6 -5 -6 6 -1 11 2 17 5 13
3 -3 4 -12 1 -19z m4863 -154 c0 -3 -5 -14 -10 -25 -14 -26 -70 -27 -70 -1 0
10 3 22 7 25 8 8 73 9 73 1z m-2772 -236 c34 -34 -13 -82 -57 -59 -37 21 -20
71 24 71 12 0 26 -5 33 -12z m-5835 -143 c4 -8 2 -17 -3 -20 -6 -4 -10 3 -10
14 0 25 6 27 13 6z m6089 -21 c-23 -10 -49 -12 -85 -8 -68 9 -37 23 53 22 l65
0 -33 -14z m-6052 -40 c0 -2 -11 -4 -25 -4 -14 0 -25 4 -25 9 0 4 11 6 25 3
14 -2 25 -6 25 -8z m42 -54 c3 -16 1 -35 -4 -42 -4 -8 -8 4 -8 30 0 49 6 55
12 12z m48 -86 c0 -8 -4 -12 -10 -9 -5 3 -10 13 -10 21 0 8 5 12 10 9 6 -3 10
-13 10 -21z m24 -40 c10 -25 1 -27 -19 -4 -15 17 -16 20 -3 20 9 0 19 -7 22
-16z m16 -68 c0 -3 -4 -8 -10 -11 -5 -3 -10 -1 -10 4 0 6 5 11 10 11 6 0 10
-2 10 -4z m85 -76 c18 -23 25 -49 14 -55 -5 -4 -12 7 -15 24 -4 21 -12 31 -24
31 -16 0 -17 3 -7 25 10 20 13 21 16 7 1 -9 9 -24 16 -32z m66 -127 c2 -23 0
-45 -4 -49 -4 -4 -7 17 -7 46 0 62 7 64 11 3z m38 -19 c3 -16 1 -17 -13 -5
-19 16 -21 34 -3 29 6 -3 14 -13 16 -24z m51 -84 c12 -8 9 -10 -13 -10 -16 0
-26 4 -22 10 8 12 16 12 35 0z m20 -51 c0 -20 -15 -26 -24 -10 -8 13 4 42 15
35 5 -3 9 -14 9 -25z m59 -76 c1 -7 -3 -13 -9 -13 -5 0 -10 15 -9 33 0 27 2
29 9 12 5 -11 9 -26 9 -32z m-59 27 c0 -5 -9 -10 -20 -10 -11 0 -20 5 -20 10
0 6 9 10 20 10 11 0 20 -4 20 -10z m625 -1289 c3 -10 17 -22 30 -25 14 -4 25
-11 25 -16 0 -6 6 -10 14 -10 8 0 17 -8 21 -19 6 -20 59 -71 75 -71 5 0 10 -6
10 -12 0 -7 11 -26 25 -42 14 -16 25 -33 25 -37 0 -4 16 -25 36 -46 20 -21 40
-48 45 -61 5 -12 17 -26 26 -29 17 -7 39 -28 78 -79 11 -14 26 -32 33 -39 6
-8 12 -17 12 -21 0 -3 16 -24 35 -45 19 -22 35 -48 35 -59 0 -36 -84 -40 -152
-6 -17 9 -35 16 -40 16 -4 0 -28 9 -52 21 -25 11 -51 22 -58 23 -7 2 -26 8
-41 14 -16 7 -30 12 -32 12 -3 0 -34 14 -70 30 -36 17 -72 30 -80 30 -8 0 -19
8 -24 18 -5 10 -26 27 -45 37 -35 19 -47 35 -26 35 6 0 10 33 10 80 0 47 4 80
10 80 6 0 10 18 10 40 0 22 5 40 10 40 6 0 10 18 10 40 0 22 -4 40 -10 40 -5
0 -10 18 -10 40 0 38 2 40 29 40 20 0 32 -6 36 -19z"/>
<path d="M14900 9257 c-34 -17 -55 -57 -46 -91 8 -31 86 -86 123 -86 29 0 29
3 -3 57 -30 51 -25 76 17 93 16 7 28 18 26 24 -5 16 -88 18 -117 3z"/>
<path d="M7736 8832 c-3 -6 -1 -14 5 -17 15 -10 25 3 12 16 -7 7 -13 7 -17 1z"/>
<path d="M14340 8040 c0 -5 7 -10 16 -10 8 0 12 5 9 10 -3 6 -10 10 -16 10 -5
0 -9 -4 -9 -10z"/>
<path d="M18622 7384 c-25 -17 -29 -34 -7 -34 14 0 41 37 33 46 -2 2 -14 -3
-26 -12z"/>
<path d="M11866 7615 c7 -17 30 -20 38 -6 3 5 -1 12 -10 15 -25 10 -34 7 -28
-9z"/>
<path d="M11913 7563 c-18 -7 -16 -20 3 -27 9 -4 13 -2 8 5 -4 6 0 15 7 20 15
9 2 11 -18 2z"/>
<path d="M11590 7541 c0 -5 9 -7 20 -4 11 3 20 7 20 9 0 2 -9 4 -20 4 -11 0
-20 -4 -20 -9z"/>
<path d="M11318 7203 c7 -3 16 -2 19 1 4 3 -2 6 -13 5 -11 0 -14 -3 -6 -6z"/>
<path d="M17641 5454 c0 -11 3 -14 6 -6 3 7 2 16 -1 19 -3 4 -6 -2 -5 -13z"/>
<path d="M9335 5210 c-3 -5 1 -10 10 -10 9 0 13 5 10 10 -3 6 -8 10 -10 10 -2
0 -7 -4 -10 -10z"/>
<path d="M9790 5070 c0 -5 7 -10 15 -10 8 0 15 5 15 10 0 6 -7 10 -15 10 -8 0
-15 -4 -15 -10z"/>
<path d="M15400 12250 c0 -5 -7 -10 -15 -10 -23 0 -18 -9 20 -46 35 -32 35
-32 35 -8 0 13 3 24 7 24 16 0 73 -25 73 -32 0 -4 9 -8 19 -8 25 0 32 -21 14
-39 -12 -11 -12 -15 -1 -22 9 -6 7 -9 -9 -9 -13 0 -23 -4 -23 -10 0 -5 -16
-10 -35 -10 -40 0 -125 -21 -125 -31 0 -11 54 -18 182 -24 68 -3 159 -10 203
-15 280 -32 764 -48 744 -24 -15 18 -207 79 -374 119 -158 38 -195 47 -260 64
-63 17 -426 91 -445 91 -5 0 -10 -4 -10 -10z"/>
<path d="M17140 11741 c0 -4 20 -16 45 -25 59 -23 63 -32 12 -29 l-42 2 35
-10 c19 -6 72 -17 117 -24 45 -8 91 -18 102 -24 11 -6 28 -11 37 -11 16 0 16
2 4 14 -21 19 -231 99 -257 98 -12 -1 -25 3 -28 8 -8 12 -25 13 -25 1z"/>
<path d="M11368 11263 c6 -2 18 -2 25 0 6 3 1 5 -13 5 -14 0 -19 -2 -12 -5z"/>
<path d="M20230 9831 c0 -6 4 -13 10 -16 6 -3 7 1 4 9 -7 18 -14 21 -14 7z"/>
<path d="M20275 9754 c9 -17 26 -41 37 -55 17 -20 16 -18 -3 16 -12 22 -29 47
-37 55 -10 11 -10 6 3 -16z"/>
<path d="M20413 9525 c120 -242 197 -421 197 -456 0 -27 11 -49 21 -43 6 3 7
-6 4 -23 -5 -21 -4 -24 4 -13 11 16 9 20 31 -53 7 -21 14 -36 16 -34 10 10
-50 197 -93 292 -90 198 -173 361 -199 390 -20 24 -17 12 19 -60z"/>
<path d="M20641 8954 c0 -11 3 -14 6 -6 3 7 2 16 -1 19 -3 4 -6 -2 -5 -13z"/>
<path d="M20782 8340 c0 -14 2 -19 5 -12 2 6 2 18 0 25 -3 6 -5 1 -5 -13z"/>
<path d="M20592 8004 c4 -3 2 -20 -3 -37 -11 -35 -26 -111 -38 -196 -5 -35 -2
-107 10 -215 10 -88 18 -163 19 -165 0 -2 9 4 20 14 19 17 20 17 20 -1 0 -10
-9 -53 -20 -94 -35 -134 -20 -175 26 -72 15 31 37 98 51 147 26 98 42 255 26
255 -6 0 -23 -46 -39 -102 -16 -56 -34 -103 -40 -105 -12 -4 1 166 16 211 13
38 13 106 0 106 -5 0 -11 -24 -11 -52 l-1 -53 -9 50 c-6 38 -5 52 5 60 12 9
12 16 0 44 -8 20 -14 69 -14 122 0 61 -4 89 -12 89 -6 0 -9 -3 -6 -6z"/>
<path d="M25533 7836 c-50 -25 -56 -40 -10 -31 54 12 77 24 77 40 0 19 -15 17
-67 -9z"/>
<path d="M4848 7784 c-5 -4 -8 -30 -7 -58 1 -50 1 -50 10 -17 11 36 8 87 -3
75z"/>
<path d="M4910 7746 c-25 -66 -32 -122 -28 -204 5 -80 22 -142 38 -142 11 0
20 354 10 364 -6 6 -13 -2 -20 -18z"/>
<path d="M25550 7687 c-70 -33 -67 -58 8 -70 l42 -7 0 45 c0 48 -6 52 -50 32z"/>
<path d="M5340 7086 c0 -76 4 -109 19 -140 10 -23 23 -52 29 -66 10 -24 11
-24 11 -3 2 51 -30 253 -44 279 -14 28 -15 24 -15 -70z"/>
<path d="M25490 6701 c-166 -74 -456 -237 -660 -369 -241 -157 -446 -321 -697
-558 -122 -115 -312 -348 -405 -494 -19 -30 -51 -80 -70 -110 -20 -30 -55 -93
-78 -140 -23 -47 -51 -97 -62 -112 -18 -26 -19 -46 -18 -285 1 -325 13 -501
45 -678 14 -77 30 -165 35 -195 26 -150 68 -315 112 -440 16 -47 54 -159 83
-250 79 -246 146 -411 266 -655 26 -55 76 -165 109 -245 64 -151 142 -317 171
-360 10 -14 36 -61 59 -105 23 -44 46 -85 50 -90 14 -17 156 -305 189 -385 40
-93 51 -115 118 -217 29 -46 53 -86 53 -89 0 -12 67 -108 89 -128 12 -11 21
-23 21 -28 0 -8 34 -60 55 -84 6 -6 21 -26 35 -45 32 -44 96 -115 186 -209 40
-41 112 -118 161 -170 48 -52 114 -122 146 -155 31 -33 57 -63 57 -67 0 -3 14
-13 30 -22 l30 -14 0 3369 c0 2689 -3 3369 -12 3369 -7 0 -51 -18 -98 -39z"/>
<path d="M20225 6594 c-75 -118 -188 -263 -296 -379 -49 -53 -113 -127 -138
-160 -25 -32 34 22 98 90 31 32 91 96 134 141 43 45 116 136 162 204 46 67 90
129 98 139 25 27 48 91 34 91 -7 0 -48 -57 -92 -126z"/>
<path d="M23531 5923 c-19 -18 -38 -33 -43 -33 -5 0 -38 -46 -74 -102 -37 -57
-75 -115 -85 -129 -10 -15 -21 -39 -25 -54 -6 -24 -5 -26 12 -17 27 14 63 54
145 157 80 102 112 157 107 188 -3 21 -5 20 -37 -10z"/>
<path d="M6080 3806 c0 -22 3 -27 11 -19 8 8 8 16 0 30 -9 16 -10 14 -11 -11z"/>
<path d="M23200 3220 c0 -11 -5 -20 -11 -20 -14 0 -2 -72 13 -81 5 -3 16 -39
25 -80 8 -41 18 -76 22 -79 5 -3 14 -36 20 -75 7 -38 16 -79 21 -90 29 -71 35
-119 34 -256 -1 -132 -3 -150 -22 -183 -19 -32 -22 -52 -22 -147 0 -66 6 -129
14 -157 26 -86 47 -191 48 -240 2 -61 -36 -117 -85 -127 -46 -10 -111 -85 -74
-85 19 0 24 -470 5 -481 -10 -7 -10 -11 0 -21 8 -8 12 -45 12 -109 0 -66 5
-106 15 -125 8 -16 15 -39 15 -51 0 -13 9 -53 21 -90 11 -38 27 -93 36 -123
16 -55 28 -85 98 -255 21 -49 48 -115 60 -145 13 -30 33 -88 46 -127 l23 -73
838 0 c793 0 837 1 831 18 -21 60 -127 209 -144 204 -5 -1 -13 8 -18 21 -5 12
-25 42 -45 66 -20 23 -36 49 -36 57 0 8 -5 14 -10 14 -6 0 -19 15 -30 33 -11
17 -20 28 -20 23 0 -5 -13 9 -29 30 -16 22 -39 48 -50 60 -12 12 -21 26 -21
33 0 6 -8 19 -17 29 -37 37 -103 120 -103 129 0 6 -16 26 -35 46 -19 20 -35
40 -35 46 0 5 -21 32 -47 58 -27 27 -55 60 -63 72 -8 12 -30 39 -48 59 -17 20
-38 51 -46 67 -8 17 -26 41 -40 54 -14 14 -26 28 -26 33 0 4 -25 45 -55 90
-31 46 -60 90 -65 98 -5 8 -21 32 -35 53 -14 21 -25 40 -25 43 0 3 -18 29 -40
59 -22 30 -40 57 -40 60 0 3 -17 29 -38 58 -20 29 -42 59 -47 68 -6 9 -38 58
-72 109 -35 51 -63 96 -63 100 0 4 -10 18 -22 31 -13 14 -29 37 -35 52 -7 15
-16 27 -21 27 -5 0 -15 18 -22 40 -7 22 -16 40 -20 40 -5 0 -17 19 -29 43 -12
23 -33 60 -46 82 -14 22 -30 49 -35 60 -6 11 -14 28 -20 38 -21 37 -31 53 -51
92 -12 22 -25 42 -28 45 -17 13 -41 63 -52 105 -7 26 -18 49 -25 52 -7 2 -20
28 -29 56 -9 29 -22 64 -30 78 -15 28 -31 83 -47 169 -6 30 -15 61 -21 69 -19
23 -39 83 -47 143 -6 48 -41 128 -56 128 -2 0 -4 -9 -4 -20z"/>
</g>
</svg>
